<?xml version="1.0" encoding="UTF-8"?>
<svg version="1.1" xmlns="http://www.w3.org/2000/svg" width="551" height="490">
<path d="M0 0 C181.83 0 363.66 0 551 0 C551 161.7 551 323.4 551 490 C369.17 490 187.34 490 0 490 C0 328.3 0 166.6 0 0 Z " fill="#FEFEFE" transform="translate(0,0)"/>
<path d="M0 0 C1.56459911 0.89870573 3.10925772 1.8336396 4.625 2.8125 C5.50478516 3.37130859 5.50478516 3.37130859 6.40234375 3.94140625 C12.19888649 8.17450489 15.53852212 14.84817678 16.625 21.8125 C17.79205937 30.33646526 15.32606161 36.7108963 10.625 43.8125 C5.43089234 49.8616048 -0.27818286 53.10299989 -8.125 54.1953125 C-17.26764763 54.742919 -24.60023078 51.85073567 -31.578125 45.94921875 C-37.43660825 39.80765753 -39.44076435 33.29561723 -39.9375 24.9375 C-39.72545141 17.38085937 -36.65709331 11.57127829 -31.734375 5.93359375 C-22.92257381 -2.28114615 -11.15703691 -5.30168972 0 0 Z " fill="#589B8E" transform="translate(244.375,65.1875)"/>
<path d="M0 0 C4.94614439 4.50805732 8.09921396 11.30887483 9.265625 17.8125 C9.60751361 26.40855649 6.87429122 33.65920126 1.5 40.3125 C-2.98217525 45.09413092 -8.99388308 48.50551476 -15.59765625 49.17578125 C-24.72107575 49.42519847 -32.8693566 47.28784697 -39.64453125 40.8828125 C-45.26325258 34.07472681 -48.2527372 26.67898749 -47.77734375 17.83203125 C-46.46112005 10.6074256 -42.40792971 2.99559023 -36.43359375 -1.3984375 C-23.27475382 -10.03782766 -12.73221296 -8.08005822 0 0 Z " fill="#A1CC62" transform="translate(330.25,391.0625)"/>
<path d="M0 0 C5.72662506 6.25655156 6.96347025 13.36190353 6.71484375 21.59765625 C5.77298513 29.69978096 1.40183196 36.20952454 -4.62890625 41.5546875 C-12.03502248 47.0132204 -19.64499041 47.56591026 -28.62890625 46.5546875 C-30.64805444 45.94848205 -32.65642877 45.29884946 -34.62890625 44.5546875 C-34.62890625 43.8946875 -34.62890625 43.2346875 -34.62890625 42.5546875 C-35.510625 42.41740234 -35.510625 42.41740234 -36.41015625 42.27734375 C-41.65807656 40.56807393 -45.35588477 34.40582183 -48.06640625 29.8046875 C-50.66755987 24.12026989 -50.62704611 17.43953402 -49.0859375 11.44140625 C-45.74610204 3.11949579 -40.1786838 -2.69648856 -32.62890625 -7.2578125 C-20.94011002 -11.88462767 -9.14062923 -8.11039044 0 0 Z " fill="#735090" transform="translate(131.62890625,270.4453125)"/>
<path d="M0 0 C6.91511457 4.98239653 10.52304348 9.77417119 12.83984375 17.98828125 C13.88887815 26.59036335 12.70202038 33.31600532 7.76171875 40.6015625 C2.55639739 46.99862848 -3.6444942 50.92349649 -11.92578125 51.921875 C-21.69093675 52.12631791 -28.41378834 49.89790467 -35.72265625 43.36328125 C-41.87179642 36.60358816 -43.66695699 28.79490282 -43.359375 19.80078125 C-42.1379573 12.04338029 -37.87495498 5.3873263 -31.6015625 0.69921875 C-22.15851632 -5.48397853 -9.82251017 -5.80198188 0 0 Z " fill="#F28A57" transform="translate(448.84765625,190.44921875)"/>
<path d="M0 0 C6.08700289 3.304373 11.28473426 8.67603756 14.02734375 15.02734375 C15.8781858 22.43071194 15.0783357 27.24750213 11.453125 33.875 C8.01246187 38.99850563 3.81281573 43.01882934 -2.22265625 44.71484375 C-3.52203125 44.90046875 -4.82140625 45.08609375 -6.16015625 45.27734375 C-7.79984375 45.52484375 -7.79984375 45.52484375 -9.47265625 45.77734375 C-15.99207958 44.89335415 -21.80854864 41.97275364 -26.1640625 36.98046875 C-30.93322281 29.94739379 -32.26659607 23.76004907 -31.16015625 15.27734375 C-28.33373505 8.73452098 -23.29729231 3.2517274 -16.84375 0.171875 C-11.56500026 -1.58770825 -5.30886277 -1.776021 0 0 Z " fill="#83589D" transform="translate(133.16015625,199.72265625)"/>
<path d="M0 0 C5.58533275 3.4957845 9.85153606 8.01455195 12.75 13.9375 C14.33095169 22.54490362 13.19650047 27.6953579 8.3125 35 C7.755625 35.928125 7.19875 36.85625 6.625 37.8125 C1.87464461 42.30607943 -4.28647201 44.19949375 -10.75 44.5625 C-17.36830692 44.2305473 -22.24299839 41.57750451 -26.76953125 36.8046875 C-31.87789302 30.49986625 -33.13121983 25.96648702 -33.0234375 17.8828125 C-32.36500433 12.23253713 -29.86567928 8.04643457 -25.75 4.1796875 C-17.94056156 -1.94362218 -9.35509709 -4.74951083 0 0 Z " fill="#696FB1" transform="translate(176.6875,85)"/>
<path d="M0 0 C4.90553548 3.94937178 8.83253305 8.80168554 9.578125 15.203125 C9.87537656 23.14888791 8.19447198 29.39931455 2.8828125 35.484375 C-2.38477862 40.22803905 -8.35104851 42.47014248 -15.359375 42.20703125 C-22.12025323 41.18950777 -27.28940338 38.03889124 -31.6953125 32.85546875 C-32.530625 31.89640625 -32.530625 31.89640625 -33.3828125 30.91796875 C-36.51165577 26.00121503 -37.66288594 20.60998445 -36.6953125 14.85546875 C-34.2200693 7.52184122 -30.16418349 2.11424562 -23.6953125 -2.14453125 C-14.96307879 -5.79619262 -7.83733505 -5.13943622 0 0 Z " fill="#F29C5B" transform="translate(432.6953125,129.14453125)"/>
<path d="M0 0 C5.38607576 3.35557286 9.885442 7.97795788 12.25 13.9375 C13.11351648 21.52841234 13.10841164 28.7491321 8.25 34.9375 C2.63221516 40.96167778 -2.32368119 43.89490317 -10.625 44.3125 C-16.87255186 44.1439004 -21.18685738 42.35908839 -25.73046875 38.06640625 C-30.92715683 32.39826606 -33.03632471 28.12863588 -32.9375 20.3125 C-32.93105469 19.18585938 -32.92460937 18.05921875 -32.91796875 16.8984375 C-32.75 13.9375 -32.75 13.9375 -31.75 10.9375 C-31.09 10.9375 -30.43 10.9375 -29.75 10.9375 C-29.54375 10.215625 -29.3375 9.49375 -29.125 8.75 C-26.77222345 3.9375025 -23.03634756 1.65488614 -18.5 -0.875 C-11.90740788 -2.96265417 -6.26038633 -3.19342939 0 0 Z " fill="#91C767" transform="translate(310.75,85.0625)"/>
<path d="M0 0 C1.21042969 0.01546875 2.42085937 0.0309375 3.66796875 0.046875 C6.8125 0.25 6.8125 0.25 9.8125 1.25 C9.8125 1.91 9.8125 2.57 9.8125 3.25 C10.534375 3.45625 11.25625 3.6625 12 3.875 C16.93317248 6.28677321 19.55461664 10.18718428 21.625 15.125 C23.52715064 20.87517953 23.75008409 25.74772535 21.1875 31.3125 C18.02618364 36.94740776 14.26970043 42.56188566 7.92578125 44.8125 C0.99874437 46.24656309 -6.15687376 46.2978465 -12.37109375 42.65234375 C-17.03668509 39.05030657 -21.92416756 34.1455514 -23.1875 28.25 C-23.82805779 19.80887182 -22.99448209 14.158765 -17.4375 7.5625 C-12.34676576 1.7602655 -7.70211441 -0.16510427 0 0 Z " fill="#82559B" transform="translate(125.1875,332.75)"/>
<path d="M0 0 C5.90839218 3.80961987 11.52459928 8.85148753 13.3203125 15.87109375 C14.09740755 23.08697636 13.01290845 29.09058024 8.7734375 35.04296875 C4.56841843 40.14108922 0.73807196 43.35422274 -6.01171875 44.375 C-14.30247462 44.51457501 -19.52447162 43.59054213 -25.6796875 37.87109375 C-30.24184333 33.18888119 -32.8264762 27.88180853 -32.9921875 21.30859375 C-32.86977816 17.54611735 -32.11692629 14.37436331 -30.6796875 10.87109375 C-30.0196875 10.87109375 -29.3596875 10.87109375 -28.6796875 10.87109375 C-28.5146875 10.16984375 -28.3496875 9.46859375 -28.1796875 8.74609375 C-23.04621074 -1.09307004 -9.88470547 -4.16425638 0 0 Z " fill="#F3CC5E" transform="translate(386.6796875,376.12890625)"/>
<path d="M0 0 C6.54119414 3.62028355 10.36570242 8.98548167 12.75 16 C13.90717051 23.24344233 12.7407002 28.68176255 8.671875 34.765625 C4.54601994 39.56235081 -1.02657085 43.46635372 -7.4140625 44.2734375 C-15.123642 44.59161062 -20.25757529 42.51298506 -26.0390625 37.42578125 C-29.97528705 33.26656861 -32.45247761 28.70047257 -33.25 23 C-33.00654434 15.8890659 -31.08480158 9.33036874 -26.25 4 C-18.23325152 -2.27874246 -9.53255069 -4.29757958 0 0 Z " fill="#F29A58" transform="translate(429.25,261)"/>
<path d="M0 0 C5.59474582 3.28488188 10.4927405 8.10322151 12.5625 14.3125 C13.25347474 21.95853197 12.88458627 27.87439232 8.5625 34.3125 C7.69625 35.67375 7.69625 35.67375 6.8125 37.0625 C2.07354787 41.80145213 -2.62192032 43.56541019 -9.3125 43.875 C-16.4540508 43.5954696 -22.35406837 41.54036936 -27.35546875 36.3046875 C-32.55046471 29.61659294 -33.31458444 23.68559678 -32.4375 15.3125 C-30.22593075 7.90270958 -26.12791464 3.10560119 -19.4375 -0.6875 C-13.27966752 -2.74011083 -5.92760512 -2.80543143 0 0 Z " fill="#549E7F" transform="translate(253.4375,376.6875)"/>
<path d="M0 0 C4.23992889 2.96950902 7.13870692 5.82799036 8.75 10.86328125 C9.50858773 16.74233615 8.70328844 20.22871638 5.30078125 25.09765625 C1.92218531 28.94431964 -1.56506325 30.61819954 -6.6875 31.36328125 C-12.46161697 30.55287887 -16.66103988 28.53372651 -20.6875 24.30078125 C-23.6227411 19.72180514 -24.14900547 15.16313254 -23.25 9.86328125 C-21.10811958 5.57210905 -18.32599936 2.62843635 -14.4375 -0.13671875 C-9.36416735 -1.72835252 -4.89821668 -2.47461988 0 0 Z " fill="#4C7CAF" transform="translate(203.25,347.13671875)"/>
<path d="M0 0 C4.72858486 2.48786172 9.10256185 5.90063497 11 11 C11.73969842 16.68511073 11.29771624 21.16334952 8 26 C4.11499468 29.91684962 0.87321442 31.80950362 -4.6875 32.375 C-9.74043378 32.30974071 -13.18115226 30.1677078 -17 27 C-20.71122534 22.80990688 -21.25587498 17.45013699 -21 12 C-19.76237234 7.47655805 -17.06334461 4.74810474 -13.3125 2.0625 C-8.89729336 -0.3949434 -4.95125726 -1.22487549 0 0 Z " fill="#F19256" transform="translate(430,346)"/>
<path d="M0 0 C4.69863163 2.53911691 9.10122984 5.8970552 11 11 C11.7444803 16.72186285 11.23564652 21.09074321 8 26 C4.16716461 30.31193982 2.07790061 31.86147329 -3.75 32.25 C-9.22527206 32.15941645 -13.39890518 30.60109482 -17.3125 26.6875 C-20.25313402 22.00426805 -21.77465192 17.53322799 -21 12 C-18.70374366 6.4889848 -15.64610798 2.94054591 -10.10546875 0.6328125 C-6.55596612 -0.43401389 -3.63318933 -0.93465025 0 0 Z " fill="#6E6BAC" transform="translate(165,158)"/>
<path d="M0 0 C0 0.66 0 1.32 0 2 C0.598125 2.20625 1.19625 2.4125 1.8125 2.625 C4.98809831 4.62109037 5.72218179 6.48599992 7 10 C8.03056403 16.06016457 6.89294134 20.16517622 3.58203125 25.2734375 C0.83598777 28.27035408 -1.83907036 29.77902305 -5.83203125 30.5390625 C-11.46779508 30.70156159 -15.19681824 30.52828689 -19.625 26.8125 C-23.3882557 22.91651536 -24.72888637 20.05271745 -25.4375 14.6875 C-24.70890342 8.54647165 -21.77502353 4.65118468 -17.3125 0.5 C-11.69670001 -2.04300377 -5.87203129 -1.6641932 0 0 Z " fill="#6B68AC" transform="translate(169,389)"/>
<path d="M0 0 C4.22017082 2.340876 7.03260965 5.38768275 9.5 9.5 C10.55382622 14.7691311 10.59016524 18.49052605 7.875 23.1875 C5.35177533 26.80716771 3.0938028 29.14620251 -1 31 C-6.94294369 31.84345204 -11.9536028 31.48441712 -17 28 C-21.38343341 23.26115307 -22.30647968 19.55322039 -22.21484375 13.28125 C-21.77123529 8.57093471 -19.88189514 5.79585659 -16.4375 2.6875 C-11.26822043 -0.89123201 -6.15523246 -0.94636699 0 0 Z " fill="#F3C55E" transform="translate(390,314)"/>
<path d="M0 0 C3.84352284 2.12287599 5.85316375 4.37795406 7.8125 8.375 C9.4047308 14.10703089 8.61532392 18.26333646 5.8125 23.375 C2.61791229 27.14297525 -0.39230539 30.08918287 -5.44140625 30.60546875 C-6.20324219 30.59128906 -6.96507812 30.57710937 -7.75 30.5625 C-8.51441406 30.55605469 -9.27882813 30.54960938 -10.06640625 30.54296875 C-12.1875 30.375 -12.1875 30.375 -15.1875 29.375 C-15.1875 28.715 -15.1875 28.055 -15.1875 27.375 C-16.05375 27.065625 -16.05375 27.065625 -16.9375 26.75 C-20.20221209 24.75489816 -21.45164622 22.78471278 -23.1875 19.375 C-24.10403139 13.7448786 -23.44220357 9.14856523 -20.1875 4.375 C-14.26249278 -1.59857285 -7.91367288 -3.55819993 0 0 Z " fill="#F3C762" transform="translate(391.1875,85.625)"/>
<path d="M0 0 C4.13616737 2.88569817 6.92631744 5.36435919 8.39453125 10.20703125 C9.1637458 14.88701886 8.99582761 18.12258356 6.5625 22.25 C4.20883267 25.40954256 2.22946587 28.0270178 -1.3125 29.875 C-7.01792956 30.54724094 -12.10383026 30.47059549 -17.3125 27.875 C-20.77198952 24.73874561 -23.01076499 21.34060605 -23.5859375 16.640625 C-23.80972669 11.09753891 -23.36589317 7.57677417 -19.71875 3.28125 C-14.11146437 -2.32603563 -7.30049703 -2.47941409 0 0 Z " fill="#815799" transform="translate(126.3125,127.125)"/>
<path d="M0 0 C4.32718768 4.11610535 6.30413704 7.40289169 7.0625 13.375 C6.71451521 19.34873886 4.22795316 23.81266765 0 27.9375 C-4.87994069 30.06692867 -9.19306827 30.21126862 -14.4375 29.4375 C-18.82813739 27.28209619 -21.91651962 24.63913397 -24.4375 20.4375 C-25.90846603 15.1782927 -25.86696487 10.25244365 -23.62890625 5.234375 C-18.330839 -2.75615265 -8.23680842 -3.74400383 0 0 Z " fill="#E6E468" transform="translate(357.4375,127.5625)"/>
<path d="M0 0 C2.05078125 0.03255208 4.1015625 0.06510417 6.15234375 0.09765625 C5.49234375 2.07765625 4.83234375 4.05765625 4.15234375 6.09765625 C4.6834375 6.46117187 5.21453125 6.8246875 5.76171875 7.19921875 C10.17961203 10.34333988 13.71207045 13.1110108 16.15234375 18.09765625 C16.21484375 20.72265625 16.21484375 20.72265625 15.15234375 23.09765625 C12.58984375 25.41015625 12.58984375 25.41015625 10.15234375 27.09765625 C6.74976459 25.63940804 4.68095507 23.77951674 2.15234375 21.09765625 C1.36859375 20.31390625 0.58484375 19.53015625 -0.22265625 18.72265625 C-1.52203125 17.42328125 -1.52203125 17.42328125 -2.84765625 16.09765625 C-3.40453125 15.59878906 -3.96140625 15.09992188 -4.53515625 14.5859375 C-6.22265625 13.03515625 -6.22265625 13.03515625 -8.84765625 10.09765625 C-8.46827742 5.84201544 -5.88202583 3.90444811 -2.84765625 1.09765625 C-1.84765625 0.09765625 -1.84765625 0.09765625 0 0 Z " fill="#F6EA04" transform="translate(349.84765625,316.90234375)"/>
<path d="M0 0 C6.91511457 4.98239653 10.52304348 9.77417119 12.83984375 17.98828125 C13.58409529 24.09114388 13.44564209 28.81753541 11.15234375 34.55078125 C10.82234375 34.55078125 10.49234375 34.55078125 10.15234375 34.55078125 C10.17554688 33.54917969 10.19875 32.54757813 10.22265625 31.515625 C10.24143164 30.17318461 10.25962993 28.83073607 10.27734375 27.48828125 C10.30054688 26.17730469 10.32375 24.86632812 10.34765625 23.515625 C9.96056249 15.65762174 7.54466913 10.14195593 2.15234375 4.55078125 C-4.02781092 -0.90462181 -11.17540941 -1.35783251 -19.09375 -0.9296875 C-26.68966474 0.04252635 -30.99824682 4.02245403 -35.6640625 9.8515625 C-39.71380071 15.6655431 -40.60162334 22.64659689 -39.84765625 29.55078125 C-38.06010737 36.71174514 -35.07459573 41.53567321 -28.84765625 45.55078125 C-21.24153224 49.44660087 -10.83554451 49.89372789 -2.66015625 47.55078125 C-1.26796875 47.05578125 -1.26796875 47.05578125 0.15234375 46.55078125 C-3.01496745 50.42193938 -7.09224926 51.33915223 -11.92578125 51.921875 C-21.69093675 52.12631791 -28.41378834 49.89790467 -35.72265625 43.36328125 C-41.87179642 36.60358816 -43.66695699 28.79490282 -43.359375 19.80078125 C-42.1379573 12.04338029 -37.87495498 5.3873263 -31.6015625 0.69921875 C-22.15851632 -5.48397853 -9.82251017 -5.80198188 0 0 Z " fill="#E5AD75" transform="translate(448.84765625,190.44921875)"/>
<path d="M0 0 C3.56352884 3.04384755 4.81458415 4.94312966 5.625 9.5625 C5 13 5 13 3 15.9375 C-0.35567749 18.24452827 -2.09062747 18.70326659 -6.06640625 18.41015625 C-9.36385138 17.71069819 -10.86439595 16.58861097 -13 14 C-13.96866319 11.27064902 -14.30897143 8.8837333 -14 6 C-10.52606307 0.36982635 -6.56092162 -1.30465745 0 0 Z " fill="#5D4D7F" transform="translate(96,172)"/>
<path d="M0 0 C2.96593118 2.25668676 4.58516544 3.98884076 6 7.4375 C6 11.02912215 4.95189051 13.00710122 3 16 C-0.04337438 18.62068349 -1.52076799 19 -5.5625 19 C-9 18 -9 18 -11.4375 15.9375 C-13.53874859 11.98715265 -13.30048996 9.43222695 -13 5 C-12.34 5 -11.68 5 -11 5 C-10.67 4.01 -10.34 3.02 -10 2 C-6.24952518 -0.50031654 -4.44143734 -0.53603554 0 0 Z " fill="#6671AC" transform="translate(174,313)"/>
<path d="M0 0 C2.23334921 1.34000952 2.79161516 2.34344502 3.5703125 4.796875 C4.02387443 6.99046542 4.2305007 8.76892716 4 11 C1.84245739 13.74066224 0.11206995 15.44396502 -3 17 C-5.3329866 17.04022391 -7.66706666 17.04320247 -10 17 C-10 16.34 -10 15.68 -10 15 C-10.99 14.67 -11.98 14.34 -13 14 C-15.50031654 10.24952518 -15.53603554 8.44143734 -15 4 C-10.17795456 -1.99497542 -7.11970255 -2.54275091 0 0 Z " fill="#5182AC" transform="translate(206,141)"/>
<path d="M0 0 C2.87382195 2.94391516 3.8091864 4.98232745 4.5625 9 C3.75982857 13.28091429 2.26476465 15.14333093 -1 18 C-5.1863997 19.1141225 -8.15780522 18.44797595 -11.9375 16.4375 C-14.68376349 13.19191588 -15.07305303 11.23707546 -15 7 C-11.35732803 0.21709357 -7.50653673 -1.39997577 0 0 Z " fill="#F2D46A" transform="translate(379,172)"/>
<path d="M0 0 C3.35227527 2.4963752 4.80693091 3.84158547 5.5 8 C4.81534233 12.10794604 3.55520559 14.77805275 0.25 17.375 C-3.14112087 18.31697802 -5.60991203 17.84752199 -9 17 C-11.68550542 15.02120653 -12.75962246 13.72113261 -13.8125 10.5625 C-14.01233434 7.83143064 -13.67970736 5.6433064 -13 3 C-12.34 3 -11.68 3 -11 3 C-11 2.34 -11 1.68 -11 1 C-7.20885096 -1.57798134 -4.3267358 -1.13861468 0 0 Z " fill="#E0E369" transform="translate(348,64)"/>
<path d="M0 0 C3.08290327 0.09528974 4.29983163 0.43475087 7.125 1.9375 C9.84111118 5.14744958 10.1875 7.19544153 10.1875 11.375 C8.82321607 14.29846557 7.45999091 16.10250909 5.1875 18.375 C2.1308822 18.93557662 -0.75304772 18.9084988 -3.8125 18.375 C-6.48396608 16.03746718 -7.4896812 14.21432889 -8.75 10.9375 C-8.83580865 7.41934534 -7.60228585 5.35797642 -5.8125 2.375 C-3.8125 0.375 -3.8125 0.375 0 0 Z " fill="#DEE265" transform="translate(342.8125,345.625)"/>
<path d="M0 0 C3.70163518 0.74731125 5.73371888 1.88905518 7.9375 5.0625 C9.02169635 8.08276127 9.07093632 9.59547289 8.1875 12.6875 C6.26855447 16.3334965 5.12302745 17.69366924 1.125 18.9375 C-2.83456096 19.0927769 -4.77336663 18.2303379 -8.0625 16.0625 C-10.20331795 13.45628685 -10.06209667 12.04031664 -10 8.625 C-8.53789417 3.06899786 -6.04082597 -0.46207811 0 0 Z " fill="#E6795C" transform="translate(453.0625,312.9375)"/>
<path d="M0 0 C4.59142137 0.37634601 6.54665814 1.04665814 9.8125 4.3125 C10.90800374 8.79486644 10.32377504 12.26864679 8.3125 16.375 C5.4339648 18.60586478 3.41161551 18.98393916 -0.21875 18.7265625 C-3.48620258 18.03936017 -5.04613043 16.84320949 -7.1875 14.3125 C-8.25 10.9375 -8.25 10.9375 -8.1875 7.3125 C-4.36261521 0.42770737 -4.36261521 0.42770737 0 0 Z " fill="#4B7EAA" transform="translate(199.1875,421.6875)"/>
<path d="M0 0 C3.84352284 2.12287599 5.85316375 4.37795406 7.8125 8.375 C9.4047308 14.10703089 8.61532392 18.26333646 5.8125 23.375 C2.61791229 27.14297525 -0.39230539 30.08918287 -5.44140625 30.60546875 C-6.20324219 30.59128906 -6.96507812 30.57710937 -7.75 30.5625 C-8.51441406 30.55605469 -9.27882813 30.54960938 -10.06640625 30.54296875 C-12.1875 30.375 -12.1875 30.375 -15.1875 29.375 C-15.1875 28.715 -15.1875 28.055 -15.1875 27.375 C-16.05375 27.065625 -16.05375 27.065625 -16.9375 26.75 C-20.20221209 24.75489816 -21.45164622 22.78471278 -23.1875 19.375 C-24.10403139 13.7448786 -23.44220357 9.14856523 -20.1875 4.375 C-14.26249278 -1.59857285 -7.91367288 -3.55819993 0 0 Z M-19.97265625 5.734375 C-22.602372 9.28575961 -21.7175419 14.19873581 -21.1875 18.375 C-20.01550277 21.77078684 -18.49990744 24.5049117 -15.42578125 26.54296875 C-12.56664828 27.60578781 -10.17042902 27.64009506 -7.125 27.625 C-5.56072266 27.63273437 -5.56072266 27.63273437 -3.96484375 27.640625 C-0.97621015 27.57572577 -0.97621015 27.57572577 1.8125 25.375 C1.8125 24.715 1.8125 24.055 1.8125 23.375 C2.4725 23.375 3.1325 23.375 3.8125 23.375 C6.23380331 19.74304504 6.02272785 17.99150652 5.9375 13.6875 C5.91042969 11.91826172 5.91042969 11.91826172 5.8828125 10.11328125 C5.85960937 9.20964844 5.83640625 8.30601563 5.8125 7.375 C4.4925 6.715 3.1725 6.055 1.8125 5.375 C1.8125 4.715 1.8125 4.055 1.8125 3.375 C0.8225 3.375 -0.1675 3.375 -1.1875 3.375 C-1.1875 2.715 -1.1875 2.055 -1.1875 1.375 C-3.08260699 1.29339252 -4.97874504 1.23553541 -6.875 1.1875 C-7.93074219 1.15269531 -8.98648437 1.11789063 -10.07421875 1.08203125 C-14.32692995 1.48222365 -16.65148146 3.20534036 -19.97265625 5.734375 Z " fill="#E8BF79" transform="translate(391.1875,85.625)"/>
<path d="M0 0 C4.22017082 2.340876 7.03260965 5.38768275 9.5 9.5 C10.55382622 14.7691311 10.59016524 18.49052605 7.875 23.1875 C5.35177533 26.80716771 3.0938028 29.14620251 -1 31 C-6.94294369 31.84345204 -11.9536028 31.48441712 -17 28 C-21.38343341 23.26115307 -22.30647968 19.55322039 -22.21484375 13.28125 C-21.77123529 8.57093471 -19.88189514 5.79585659 -16.4375 2.6875 C-11.26822043 -0.89123201 -6.15523246 -0.94636699 0 0 Z M-10 1 C-10 1.66 -10 2.32 -10 3 C-10.7425 3.226875 -11.485 3.45375 -12.25 3.6875 C-15.7200344 5.34365278 -17.02692125 6.68804638 -19 10 C-20.20406057 14.43946143 -20.34731537 17.91719326 -18.9375 22.3125 C-16.49439614 25.70132149 -14.81883489 27.22696952 -11 29 C-7.30665626 29.31540952 -3.69618303 29.23676617 0 29 C0 28.34 0 27.68 0 27 C0.639375 26.7525 1.27875 26.505 1.9375 26.25 C4.18741541 25.18437567 4.18741541 25.18437567 4.75 22.875 C4.87375 21.946875 4.87375 21.946875 5 21 C5.66 21 6.32 21 7 21 C8.20869603 16.04434628 7.89707811 12.74269529 6 8 C3.60416349 5.18668622 3.60416349 5.18668622 1 3 C0.34 2.34 -0.32 1.68 -1 1 C-3.21072977 0.75746187 -3.21072977 0.75746187 -5.625 0.875 C-6.85089844 0.90207031 -6.85089844 0.90207031 -8.1015625 0.9296875 C-9.04128906 0.96449219 -9.04128906 0.96449219 -10 1 Z " fill="#E6B973" transform="translate(390,314)"/>
<path d="M0 0 C1.15628906 -0.01417969 2.31257813 -0.02835937 3.50390625 -0.04296875 C6.4375 0.1875 6.4375 0.1875 8.4375 2.1875 C7.5196875 2.11789062 6.601875 2.04828125 5.65625 1.9765625 C-2.67896342 1.45145428 -2.67896342 1.45145428 -10.0625 4.75 C-11.26438515 5.85883598 -12.43271339 7.0052871 -13.5625 8.1875 C-14.14902344 8.71730469 -14.73554688 9.24710937 -15.33984375 9.79296875 C-19.2576785 13.67392976 -20.44133574 17.06961999 -20.66796875 22.55078125 C-20.49665814 26.83354648 -20.25205404 31.21207873 -18.5625 35.1875 C-16.7139139 36.3333888 -16.7139139 36.3333888 -14.5625 37.1875 C-13.94632812 37.68507813 -13.33015625 38.18265625 -12.6953125 38.6953125 C-5.99877093 44.08902497 0.10285728 43.82771438 8.4375 43.1875 C5.6451574 45.9798426 3.77749976 45.58646441 -0.125 45.6875 C-8.68574184 45.57335678 -13.11765254 42.72300134 -18.9375 36.75 C-22.85531839 30.57190177 -24.36049356 25.4086876 -23.5625 18.1875 C-22.5625 14.625 -22.5625 14.625 -21.5625 12.1875 C-20.9025 12.1875 -20.2425 12.1875 -19.5625 12.1875 C-19.3975 11.48625 -19.2325 10.785 -19.0625 10.0625 C-15.15334163 2.56994645 -8.01172272 0.04475823 0 0 Z " fill="#EBD981" transform="translate(377.5625,374.8125)"/>
<path d="M0 0 C7.35387555 0.61282296 13.97349891 3.28189738 19.546875 8.2734375 C24.88873824 14.62049006 27.98727747 22.02982579 27.44921875 30.33984375 C26.04325819 38.66557544 22.37981041 45.43052841 16 51 C10.62850423 54.40655522 5.69794751 56.13762291 -0.6875 56.0625 C-1.68136719 56.05347656 -2.67523438 56.04445313 -3.69921875 56.03515625 C-4.83810547 56.01775391 -4.83810547 56.01775391 -6 56 C-6 55.67 -6 55.34 -6 55 C-5.24976563 54.92523438 -4.49953125 54.85046875 -3.7265625 54.7734375 C3.2026793 53.88328301 8.13483305 52.23949636 13.94140625 48.33984375 C16 47 16 47 19 46 C19 45.01 19 44.02 19 43 C19.66 43 20.32 43 21 43 C21.12375 42.2575 21.2475 41.515 21.375 40.75 C22 38 22 38 23.03125 36.21875 C24.30814683 33.29424436 24.19406035 30.92677633 24.125 27.75 C24.09792969 26.13351562 24.09792969 26.13351562 24.0703125 24.484375 C24.04710937 23.66453125 24.02390625 22.8446875 24 22 C23.67 22 23.34 22 23 22 C22.731875 20.741875 22.46375 19.48375 22.1875 18.1875 C21.38855405 14.92849028 20.65002135 13.16819928 18 11 C18 10.34 18 9.68 18 9 C17.360625 8.773125 16.72125 8.54625 16.0625 8.3125 C12.62062679 6.83741148 9.43611069 5.06766778 6.18359375 3.21875 C4.14881829 2.08306137 2.09238102 1.02483968 0 0 Z " fill="#D0DA7F" transform="translate(312,384)"/>
<path d="M0 0 C0.90105469 0.00902344 1.80210937 0.01804687 2.73046875 0.02734375 C3.41753906 0.03894531 4.10460937 0.05054688 4.8125 0.0625 C4.8125 0.3925 4.8125 0.7225 4.8125 1.0625 C4.255625 1.08828125 3.69875 1.1140625 3.125 1.140625 C-2.81942295 1.58244022 -7.04208049 3.14272233 -12.1875 6.0625 C-12.88875 6.34738281 -13.59 6.63226563 -14.3125 6.92578125 C-17.84467153 9.06716024 -18.19285708 13.2647725 -19.1875 17.0625 C-19.455625 18.0525 -19.72375 19.0425 -20 20.0625 C-20.37104928 25.99928845 -19.0441067 32.43457197 -15.1875 37.0625 C-10.15122741 40.7026806 -6.1467747 43.20447368 0.125 43.1875 C1.06988281 43.19007813 2.01476562 43.19265625 2.98828125 43.1953125 C5.69845736 43.067863 8.17223585 42.66846226 10.8125 42.0625 C10.8125 41.4025 10.8125 40.7425 10.8125 40.0625 C12.1325 40.3925 13.4525 40.7225 14.8125 41.0625 C8.22727683 44.98561168 2.55187119 47.58074985 -5.1875 46.0625 C-12.43063703 43.40629304 -17.67098163 38.77427907 -21.2890625 32 C-23.84352714 25.78043393 -23.22044277 20.3758131 -21.1875 14.0625 C-18.46035941 7.63735678 -14.40604802 4.09371692 -8.1875 1.0625 C-5.17259443 0.05753148 -3.14568308 -0.04085303 0 0 Z " fill="#E3B07A" transform="translate(419.1875,258.9375)"/>
<path d="M0 0 C2.05078125 0.03255208 4.1015625 0.06510417 6.15234375 0.09765625 C5.49234375 2.07765625 4.83234375 4.05765625 4.15234375 6.09765625 C6.13234375 7.74765625 8.11234375 9.39765625 10.15234375 11.09765625 C6.09889273 11.09765625 4.33081085 9.51605513 1.15234375 7.09765625 C0.82234375 6.10765625 0.49234375 5.11765625 0.15234375 4.09765625 C-1.16765625 5.41765625 -2.48765625 6.73765625 -3.84765625 8.09765625 C-2.08681563 12.05954765 0.18169925 16.112334 4.15234375 18.09765625 C4.15234375 19.08765625 4.15234375 20.07765625 4.15234375 21.09765625 C5.14234375 21.42765625 6.13234375 21.75765625 7.15234375 22.09765625 C7.15234375 22.75765625 7.15234375 23.41765625 7.15234375 24.09765625 C9.13234375 23.43765625 11.11234375 22.77765625 13.15234375 22.09765625 C13.48234375 20.44765625 13.81234375 18.79765625 14.15234375 17.09765625 C14.81234375 17.42765625 15.47234375 17.75765625 16.15234375 18.09765625 C15.8461597 21.77186491 15.39462591 22.87901138 12.58984375 25.41015625 C11.78546875 25.96703125 10.98109375 26.52390625 10.15234375 27.09765625 C6.74976459 25.63940804 4.68095507 23.77951674 2.15234375 21.09765625 C1.36859375 20.31390625 0.58484375 19.53015625 -0.22265625 18.72265625 C-1.52203125 17.42328125 -1.52203125 17.42328125 -2.84765625 16.09765625 C-3.40453125 15.59878906 -3.96140625 15.09992188 -4.53515625 14.5859375 C-6.22265625 13.03515625 -6.22265625 13.03515625 -8.84765625 10.09765625 C-8.46827742 5.84201544 -5.88202583 3.90444811 -2.84765625 1.09765625 C-1.84765625 0.09765625 -1.84765625 0.09765625 0 0 Z " fill="#F1E829" transform="translate(349.84765625,316.90234375)"/>
<path d="M0 0 C2.60964149 1.03012164 3.83498357 1.58694861 5.375 3.9375 C5.5625 7.125 5.5625 7.125 5.375 9.9375 C4.715 9.9375 4.055 9.9375 3.375 9.9375 C3.045 10.9275 2.715 11.9175 2.375 12.9375 C-4.0032235 13.29853152 -4.0032235 13.29853152 -6.5625 11.8125 C-8.17465675 8.9675175 -8.14888687 7.1463071 -7.625 3.9375 C-5.12171555 1.14812589 -3.80877374 -0.09068509 0 0 Z " fill="#565179" transform="translate(82.625,205.0625)"/>
<path d="M0 0 C3.37392649 0.6747853 4.56220896 1.66784386 6.5 4.5 C6.43498241 7.68586196 6.01914046 9.68030454 4.3125 12.375 C1.56936366 14.07763635 -0.34768868 13.95971207 -3.5 13.5 C-5.8151023 11.41640793 -6.40276165 10.05564772 -6.9375 7 C-6.20847934 2.83416768 -4.12966477 0.82593295 0 0 Z " fill="#5D968F" transform="translate(230.5,433.5)"/>
<path d="M0 0 C6.31945369 1.77734635 11.10866856 6.51762748 15 11.625 C16.96347265 18.25172019 17.32916899 25.93706878 14.5 32.375 C11.32304734 37.69245268 6.62794841 41.68602579 1.125 44.4375 C-4.55710991 45.46027978 -10.0738493 46.28410047 -15 43 C-14.14277344 42.96261719 -13.28554688 42.92523438 -12.40234375 42.88671875 C-1.98003915 42.54563041 -1.98003915 42.54563041 6.6796875 37.3515625 C11.23857983 32.18190948 13.30495457 28.76909279 13.375 21.6875 C13.41753906 19.74423828 13.41753906 19.74423828 13.4609375 17.76171875 C12.79557128 12.33165374 10.44616251 9.33770032 6.5 5.6875 C4.21731291 4.14668622 2.69270763 3.39891965 0 3 C0 2.01 0 1.02 0 0 Z " fill="#BBD280" transform="translate(307,84)"/>
<path d="M0 0 C0 0.33 0 0.66 0 1 C-0.68964844 1.08636719 -1.37929688 1.17273438 -2.08984375 1.26171875 C-10.05707861 2.45297883 -17.54970731 4.71367421 -23 11 C-25.7990084 18.07117912 -25.97404943 25.50488144 -23.9375 32.8125 C-20.74329505 38.06748234 -16.5410913 41.40603858 -11 44 C-11.99 44.495 -11.99 44.495 -13 45 C-19.36958152 42.59732878 -23.81861038 38.98849811 -27 33 C-29.46136586 27.4912288 -30.09149652 22.23387573 -28.16015625 16.51171875 C-24.80371881 9.06427001 -20.16742015 3.74273933 -12.5625 0.5625 C-8.32660908 -0.10632488 -4.27637892 -0.17454608 0 0 Z " fill="#E6B57B" transform="translate(425,125)"/>
<path d="M0 0 C3.21666704 -0.21931821 5.43362303 -0.26828383 8.375 1.125 C10 3 10 3 10.5 6 C10 9 10 9 8.4375 10.9375 C4.94869263 12.45826219 2.63095606 11.94135898 -1 11 C-3.1519437 7.77208445 -3.20086443 6.71599191 -3 3 C-2.34 3 -1.68 3 -1 3 C-0.67 2.01 -0.34 1.02 0 0 Z " fill="#AACF6A" transform="translate(310,57)"/>
<path d="M0 0 C2.60619139 1.02875976 3.89076734 1.54623627 5.375 3.9375 C5.24376473 7.08714647 4.88288877 9.17566685 3.125 11.8125 C0.65653087 13.39937301 -0.74280274 13.42958246 -3.625 12.9375 C-6.35078551 10.94841327 -7.44331444 9.74499138 -8.1875 6.4375 C-7.625 3.9375 -7.625 3.9375 -5.4375 1.5625 C-2.625 -0.0625 -2.625 -0.0625 0 0 Z " fill="#A9CC6F" transform="translate(314.625,358.0625)"/>
<path d="M0 0 C3.125 0.375 3.125 0.375 5.5 2.0625 C7.39758004 4.76290237 7.48382213 6.14560081 7.125 9.375 C6.465 9.375 5.805 9.375 5.125 9.375 C5.125 10.035 5.125 10.695 5.125 11.375 C1.875 12.125 1.875 12.125 -1.875 12.375 C-4.375 10.8125 -4.375 10.8125 -5.875 8.375 C-5.68379729 3.59493219 -5.15907957 0.67292342 0 0 Z " fill="#DF7361" transform="translate(461.875,285.625)"/>
<path d="M0 0 C1.9375 1.0625 1.9375 1.0625 3 3 C2.66666667 9.33333333 2.66666667 9.33333333 0 12 C-3.4375 12.4375 -3.4375 12.4375 -7 12 C-9 9.8125 -9 9.8125 -10 7 C-9.875 4.3125 -9.875 4.3125 -9 2 C-5.53076119 -0.31282587 -4.07794425 -0.42478586 0 0 Z " fill="#706DA5" transform="translate(164,286)"/>
<path d="M0 0 C0 0.66 0 1.32 0 2 C0.99 2.33 1.98 2.66 3 3 C3.35807422 9.32597793 3.35807422 9.32597793 1.9375 12 C-1.22796524 13.63378851 -3.65020286 12.85267564 -7 12 C-9.1610211 8.75846834 -9.64247553 7.76307099 -9 4 C-5.79364489 0.70457948 -4.69279787 0 0 0 Z " fill="#ECC873" transform="translate(386,205)"/>
<path d="M0 0 C1.875 1.125 1.875 1.125 3 3 C3.39365568 6.14924548 3.52854531 8.11909116 1.875 10.875 C-0.88090884 12.52854531 -2.85075452 12.39365568 -6 12 C-7.875 10.875 -7.875 10.875 -9 9 C-9.39365568 5.85075452 -9.52854531 3.88090884 -7.875 1.125 C-5.11909116 -0.52854531 -3.14924548 -0.39365568 0 0 Z " fill="#5D968E" transform="translate(234,133)"/>
<path d="M0 0 C3.35227527 2.4963752 4.80693091 3.84158547 5.5 8 C4.81534233 12.10794604 3.55520559 14.77805275 0.25 17.375 C-3.14112087 18.31697802 -5.60991203 17.84752199 -9 17 C-11.68550542 15.02120653 -12.75962246 13.72113261 -13.8125 10.5625 C-14.01233434 7.83143064 -13.67970736 5.6433064 -13 3 C-12.34 3 -11.68 3 -11 3 C-11 2.34 -11 1.68 -11 1 C-7.20885096 -1.57798134 -4.3267358 -1.13861468 0 0 Z M-9.3125 2.5625 C-11.62779065 5.90680872 -11.49857427 8.0114058 -11 12 C-10.18547684 14.55851025 -10.18547684 14.55851025 -8 16 C-5.24513897 16.33145271 -2.79328696 16.18316636 0 16 C2.6472827 11.08929882 2.6472827 11.08929882 2.375 5.6875 C1.14492828 2.74411755 1.14492828 2.74411755 -2 1 C-5.25995538 0.4984684 -6.55815654 0.70145712 -9.3125 2.5625 Z " fill="#DADE88" transform="translate(348,64)"/>
<path d="M0 0 C0.66 0.66 1.32 1.32 2 2 C-2.76307437 2.95261487 -7.1666528 3.08333357 -12 3 C-12.268125 3.5775 -12.53625 4.155 -12.8125 4.75 C-14 7 -14 7 -15.53125 8.75 C-17.42244272 11.64714629 -17.50091813 13.81689356 -17.6875 17.25 C-17.78611328 18.86648438 -17.78611328 18.86648438 -17.88671875 20.515625 C-17.92410156 21.33546875 -17.96148437 22.1553125 -18 23 C-17.34 23 -16.68 23 -16 23 C-16 23.66 -16 24.32 -16 25 C-15.34 25 -14.68 25 -14 25 C-12.375 27.5 -12.375 27.5 -11 30 C-14.33901841 29.07249489 -15.9088495 28.10127833 -18.25 25.5 C-20.74118459 20.51763083 -21.9595129 15.47571805 -20.44140625 9.9765625 C-16.57024953 2.09660794 -8.54795582 -1.68476308 0 0 Z " fill="#E5AC77" transform="translate(430,346)"/>
<path d="M0 0 C8.04573725 0.16849712 14.10276731 3.3936602 19.9375 8.8125 C25.62762884 14.97122768 27.2463351 22.17378027 27.16796875 30.43359375 C26.92855635 33.28983933 26.05920738 35.78948154 25 38.4375 C24.67 38.4375 24.34 38.4375 24 38.4375 C24.02320313 37.43589844 24.04640625 36.43429688 24.0703125 35.40234375 C24.08908789 34.05990336 24.10728618 32.71745482 24.125 31.375 C24.14820313 30.06402344 24.17140625 28.75304687 24.1953125 27.40234375 C23.8091184 19.56260349 21.40430652 14.00521968 16 8.4375 C9.15792764 2.74748089 1.61275817 2.57226577 -7 2.4375 C-4.48477991 -0.07772009 -3.49221899 0.08432915 0 0 Z " fill="#DB866C" transform="translate(435,186.5625)"/>
<path d="M0 0 C5.87082991 0.79777828 9.06560702 3.74199894 13 8 C16.47807733 13.8692555 16.9454234 19.48581621 15.56640625 26.0703125 C13.81294093 31.62476785 10.39873378 36.20668334 6 40 C3.77734375 40.72265625 3.77734375 40.72265625 2 41 C3 38 3 38 5.3125 36.6875 C9.46752938 34.07852807 11.51702237 30.85141426 12.75 26.125 C12.8325 25.09375 12.915 24.0625 13 23 C13.0515625 22.35804688 13.103125 21.71609375 13.15625 21.0546875 C13.37644779 16.22868595 12.47309458 13.25372269 10 9 C9.67 8.01 9.34 7.02 9 6 C7.20067421 4.93283296 7.20067421 4.93283296 5 4 C3.31008021 3.0398183 1.63790712 2.04644066 0 1 C0 0.67 0 0.34 0 0 Z " fill="#E5B973" transform="translate(384,377)"/>
<path d="M0 0 C6.17529374 0.02858932 10.43354575 1.12854552 15.203125 5.14453125 C19.83386992 9.92627872 22.26592027 14.74727761 22.625 21.4375 C22.36009276 27.30685097 20.28403893 32.16350631 17 37 C16.01 37.495 16.01 37.495 15 38 C15.875 33.25 15.875 33.25 17 31 C17.66 31 18.32 31 19 31 C20.07531017 21.96621066 20.07531017 21.96621066 19 13 C18.34 13 17.68 13 17 13 C15 10 15 10 15 7 C11.8367155 5.3279782 8.6178082 4.07778864 5.25 2.875 C4.26515625 2.52179688 3.2803125 2.16859375 2.265625 1.8046875 C1.51796875 1.53914063 0.7703125 1.27359375 0 1 C0 0.67 0 0.34 0 0 Z " fill="#DD936E" transform="translate(420,126)"/>
<path d="M0 0 C0.69738281 0.37125 1.39476562 0.7425 2.11328125 1.125 C2.89251953 1.558125 2.89251953 1.558125 3.6875 2 C3.3575 3.32 3.0275 4.64 2.6875 6 C2.26082031 5.6390625 1.83414063 5.278125 1.39453125 4.90625 C-4.84898146 0.27189005 -10.72620932 -0.02287065 -18.3125 1 C-23.74232196 2.61264854 -27.17263763 5.2274092 -30.3125 10 C-30.6425 10.66 -30.9725 11.32 -31.3125 12 C-31.9725 12 -32.6325 12 -33.3125 12 C-33.6425 13.98 -33.9725 15.96 -34.3125 18 C-35.29370464 14.94736336 -35.29370464 13.05263664 -34.3125 10 C-33.6525 10 -32.9925 10 -32.3125 10 C-32.0959375 9.071875 -32.0959375 9.071875 -31.875 8.125 C-31.3125 6 -31.3125 6 -30.3125 4 C-29.3225 4 -28.3325 4 -27.3125 4 C-27.3125 3.34 -27.3125 2.68 -27.3125 2 C-26.3225 2 -25.3325 2 -24.3125 2 C-24.3125 1.34 -24.3125 0.68 -24.3125 0 C-21.91718244 -0.33745354 -19.52135732 -0.6700829 -17.125 -1 C-16.11469727 -1.14308594 -16.11469727 -1.14308594 -15.08398438 -1.2890625 C-4.93301913 -2.6755358 -4.93301913 -2.6755358 0 0 Z " fill="#FDF9D6" transform="translate(389.3125,375)"/>
<path d="M0 0 C5.82681177 0.25389158 9.74415528 0.61116013 14 5 C15.62215174 8.24430347 15.55292793 11.49378642 15 15 C13.07114735 18.42215793 11.66857474 20.46291808 7.83984375 21.6953125 C3.87975811 22.31676167 1.61554593 22.28892972 -2.0625 20.5625 C-2.701875 20.046875 -3.34125 19.53125 -4 19 C-3.505 17.515 -3.505 17.515 -3 16 C-2.484375 16.515625 -1.96875 17.03125 -1.4375 17.5625 C2.04426568 19.61584899 4.1631596 18.97665028 8 18 C10.05938216 16.42114034 10.84571211 15.30857577 12 13 C12.37411763 9.5581178 12.41025325 7.65997262 10.5625 4.6875 C6.88921892 2.26851002 3.32183086 2.18469363 -1 2 C-0.67 1.34 -0.34 0.68 0 0 Z " fill="#FDFDDB" transform="translate(340,62)"/>
<path d="M0 0 C4.42485195 0.50569737 6.81561943 1.89941892 10 5 C12.93701239 9.45615673 14.03508374 13.73585984 13 19 C11.17811657 23.45349284 8.69813441 26.88878065 4.625 29.5 C0.76934576 31.09544314 -1.87148437 31.33702168 -6 31 C-6.33 30.34 -6.66 29.68 -7 29 C-6.39671875 28.96261719 -5.7934375 28.92523438 -5.171875 28.88671875 C-0.5526711 28.50675198 2.46934101 28.24820627 6 25 C6.66 25 7.32 25 8 25 C10.33028534 20.48507216 10.60587815 15.98067476 10 11 C8.57519268 7.60524168 6.81202044 5.39848802 4 3 C1.8618034 2.2127322 1.8618034 2.2127322 0 2 C0 1.34 0 0.68 0 0 Z " fill="#6288A0" transform="translate(199,347)"/>
<path d="M0 0 C4.87696062 1.14752015 6.84627025 3.98290691 9.66796875 7.83203125 C13.26333196 13.6837221 14.06140166 19.24480809 13 26 C9.06551724 34.96724138 9.06551724 34.96724138 5 37 C5.41555953 33.57163388 6.17804167 31.71944948 8.0625 28.75 C10.57184374 24.56167718 10.60033207 20.76785467 10 16 C9.14228658 12.75763432 9.14228658 12.75763432 8 10 C7.87625 9.2575 7.7525 8.515 7.625 7.75 C7.14300135 5.81614112 7.14300135 5.81614112 5.125 4.875 C4.42375 4.58625 3.7225 4.2975 3 4 C2.01 3.34 1.02 2.68 0 2 C0 1.34 0 0.68 0 0 Z " fill="#DB9370" transform="translate(429,262)"/>
<path d="M0 0 C0.33 0 0.66 0 1 0 C1.90981169 10.26065411 1.90981169 10.26065411 -0.1953125 14.28515625 C-3.73486081 18.4739182 -6.77519923 20.80010542 -12.34765625 21.30078125 C-13.57355469 21.30464844 -14.79945313 21.30851562 -16.0625 21.3125 C-17.29097656 21.32925781 -18.51945312 21.34601563 -19.78515625 21.36328125 C-23 21 -23 21 -24.93359375 19.48046875 C-25.28550781 18.99191406 -25.63742187 18.50335938 -26 18 C-25.67 17.34 -25.34 16.68 -25 16 C-24.45214844 16.32355469 -23.90429688 16.64710938 -23.33984375 16.98046875 C-18.32017928 19.16766813 -12.16932283 18.73849288 -7.0625 17 C-2.22106194 12.30527218 -0.54722127 6.56665529 0 0 Z " fill="#FEFDDB" transform="translate(364,138)"/>
<path d="M0 0 C0 0.66 0 1.32 0 2 C-0.825 2.5775 -1.65 3.155 -2.5 3.75 C-5.3231208 5.79434413 -5.3231208 5.79434413 -5.375 9.125 C-5.16790317 11.93733757 -5.16790317 11.93733757 -4 14 C-0.63471927 14.53417154 2.59627516 15 6 15 C6 14.34 6 13.68 6 13 C6.66 13 7.32 13 8 13 C8.33 10.36 8.66 7.72 9 5 C11 7 11 7 11.4375 9.3125 C10.81702912 13.12396398 8.87099283 14.53914901 6 17 C3.04335481 18.4783226 0.25770263 18.06032783 -3 18 C-3 17.34 -3 16.68 -3 16 C-3.99 15.67 -4.98 15.34 -6 15 C-8.50031654 11.24952518 -8.53603554 9.44143734 -8 5 C-4.06382979 0 -4.06382979 0 0 0 Z " fill="#5F82A4" transform="translate(199,140)"/>
<path d="M0 0 C-0.7425 0.515625 -1.485 1.03125 -2.25 1.5625 C-5.39156297 4.34706718 -7.68200102 7.00700902 -9 11 C-9.29416031 16.27705771 -8.43677324 19.9383589 -5 24 C-5.33 24.99 -5.66 25.98 -6 27 C-10.61646811 21.67330602 -12.30393827 18.42636202 -12.22265625 11.28515625 C-11.82714085 7.22591925 -9.97349541 4.39070772 -7.6875 1.125 C-5.1654793 -0.55634713 -2.94775013 -0.19651668 0 0 Z " fill="#EDD376" transform="translate(380,316)"/>
<path d="M0 0 C3.875 2.625 3.875 2.625 5 6 C5.56384129 11.69262838 5.30719906 16.14944138 2 21 C-1.92420544 24.95637106 -5.41948427 27.13476154 -11.0625 27.1875 C-15 27 -15 27 -17 25 C-16.21496094 25.020625 -15.42992187 25.04125 -14.62109375 25.0625 C-9.00180601 24.95218269 -4.83929992 24.75645765 -0.75 20.625 C2.37520192 16.40483682 2.67222916 12.75839834 2.44140625 7.61328125 C1.97555236 4.8552613 1.13466393 2.5495485 0 0 Z " fill="#D99773" transform="translate(436,351)"/>
<path d="M0 0 C4.04360636 -0.32348851 6.66919387 -0.13833711 10.4375 1.4375 C13.21169772 4.21169772 13.4455557 4.72485931 13.625 8.4375 C13.38896122 11.54705438 12.90187702 13.20033443 11.5 16.0625 C8.62150552 18.29333322 6.59874714 18.66854691 2.96875 18.41796875 C-0.25211476 17.73417405 -1.86214092 16.46177712 -4 14 C-4.8125 10.75 -4.8125 10.75 -5 8 C-4.34 8 -3.68 8 -3 8 C-2.01 10.31 -1.02 12.62 0 15 C2.97 15.33 5.94 15.66 9 16 C9 15.34 9 14.68 9 14 C9.66 14 10.32 14 11 14 C11 11.03 11 8.06 11 5 C7.09567131 3.04783565 4.27786748 2.49360009 0 2 C0 1.34 0 0.68 0 0 Z " fill="#5C819D" transform="translate(196,422)"/>
<path d="M0 0 C3.06500356 2.93174254 3.93498045 4.2457732 4.3125 8.625 C4.21128948 14.81008708 1.81223185 19.23196893 -2.5625 23.5 C-7.40128975 25.61147189 -11.7981338 25.33321563 -17 25 C-17 24.67 -17 24.34 -17 24 C-15.98679687 23.80083984 -15.98679687 23.80083984 -14.953125 23.59765625 C-13.61507813 23.33275391 -13.61507813 23.33275391 -12.25 23.0625 C-11.36828125 22.88847656 -10.4865625 22.71445313 -9.578125 22.53515625 C-8.30195313 22.27025391 -8.30195313 22.27025391 -7 22 C-6.25492187 21.85046875 -5.50984375 21.7009375 -4.7421875 21.546875 C-2.82127168 21.15209187 -2.82127168 21.15209187 -1.875 19.1875 C-1.58625 18.465625 -1.2975 17.74375 -1 17 C-0.62875 16.401875 -0.2575 15.80375 0.125 15.1875 C2.07356673 10.31608317 0.97826429 5.0136045 0 0 Z " fill="#EEE17A" transform="translate(360,132)"/>
<path d="M0 0 C0.99 0 1.98 0 3 0 C7.41278129 7.44656843 7.69034325 14.47822188 7 23 C6.67 23.66 6.34 24.32 6 25 C5.34 25 4.68 25 4 25 C3.67 26.98 3.34 28.96 3 31 C2.34 31 1.68 31 1 31 C1.2165625 30.40574219 1.433125 29.81148438 1.65625 29.19921875 C5.25108942 18.49791437 4.94611802 10.17928753 0 0 Z " fill="#FBFCDE" transform="translate(334,396)"/>
<path d="M0 0 C2.1640625 0.48046875 2.1640625 0.48046875 4.7265625 3.10546875 C6.27936695 6.75118356 6.89353154 8.58996722 6.1640625 12.48046875 C4.1640625 15.85546875 4.1640625 15.85546875 1.1640625 18.48046875 C-1.79523692 19.12551681 -3.75045717 18.88512191 -6.8359375 18.48046875 C-7.4959375 17.82046875 -8.1559375 17.16046875 -8.8359375 16.48046875 C-5.8659375 16.81046875 -2.8959375 17.14046875 0.1640625 17.48046875 C0.1640625 16.82046875 0.1640625 16.16046875 0.1640625 15.48046875 C0.8240625 15.48046875 1.4840625 15.48046875 2.1640625 15.48046875 C2.1640625 14.82046875 2.1640625 14.16046875 2.1640625 13.48046875 C2.8240625 13.48046875 3.4840625 13.48046875 4.1640625 13.48046875 C4.0609375 12.20171875 3.9578125 10.92296875 3.8515625 9.60546875 C3.79355469 8.88617188 3.73554688 8.166875 3.67578125 7.42578125 C3.29013214 5.08527659 3.29013214 5.08527659 0.1640625 3.48046875 C-2.35178641 3.23896102 -2.35178641 3.23896102 -5.0234375 3.35546875 C-6.37501953 3.38253906 -6.37501953 3.38253906 -7.75390625 3.41015625 C-8.78451172 3.44496094 -8.78451172 3.44496094 -9.8359375 3.48046875 C-6.8630869 -0.08125321 -4.46524606 -0.15272014 0 0 Z " fill="#E8D289" transform="translate(376.8359375,171.51953125)"/>
<path d="M0 0 C0 0.33 0 0.66 0 1 C-0.96099609 1.22042969 -0.96099609 1.22042969 -1.94140625 1.4453125 C-8.19917295 3.06804187 -12.61119471 5.18170918 -17 10 C-18.38226016 12.76452033 -18.09525387 15.0461363 -18.0625 18.125 C-18.04896484 19.76855469 -18.04896484 19.76855469 -18.03515625 21.4453125 C-18.02355469 22.28835937 -18.01195312 23.13140625 -18 24 C-20.85596442 21.14403558 -20.84135574 18.60707088 -21.1484375 14.671875 C-20.8973169 10.15170414 -19.11834239 7.20701564 -16 4 C-10.87015377 0.13624348 -6.28258762 -0.44875626 0 0 Z " fill="#8475A5" transform="translate(165,158)"/>
<path d="M0 0 C0.66 0.33 1.32 0.66 2 1 C0.7934375 2.2684375 0.7934375 2.2684375 -0.4375 3.5625 C-3.67702971 7.49227042 -4.27026127 10.9989738 -3.8125 16.08203125 C-3.05492152 20.33551878 -2.44749583 21.65990317 1.125 24.375 C2.07375 24.91125 3.0225 25.4475 4 26 C4 26.66 4 27.32 4 28 C0.05048702 26.87156772 -2.46461632 25.10931231 -4.984375 21.83203125 C-7.27946039 17.69205029 -7.49632075 13.32423376 -6.51953125 8.75 C-5.18124751 4.72775495 -3.84819023 2.12313944 0 0 Z " fill="#D3DB84" transform="translate(339,128)"/>
<path d="M0 0 C0 4.09064594 -1.70180562 5.40066086 -4.34765625 8.3515625 C-8.97727372 12.97023525 -13.71469321 14.13962815 -20.0625 14.1875 C-21.34833984 14.20876953 -21.34833984 14.20876953 -22.66015625 14.23046875 C-25 14 -25 14 -28 12 C-27.14277344 11.96261719 -26.28554688 11.92523438 -25.40234375 11.88671875 C-14.94047722 11.56931374 -14.94047722 11.56931374 -6.3203125 6.28125 C-5.2696509 5.05464029 -4.24709842 3.80308123 -3.26171875 2.5234375 C-2 1 -2 1 0 0 Z " fill="#ABCA82" transform="translate(320,115)"/>
<path d="M0 0 C0.70125 0.00515625 1.4025 0.0103125 2.125 0.015625 C2.82625 0.01046875 3.5275 0.0053125 4.25 0 C6.125 0.265625 6.125 0.265625 8.125 2.265625 C7.073125 2.1625 6.02125 2.059375 4.9375 1.953125 C1.03457581 1.94716703 1.03457581 1.94716703 -1.875 4.390625 C-4.1784514 7.10113222 -4.1784514 7.10113222 -3.8125 10.328125 C-2.87821042 13.51603807 -2.87821042 13.51603807 -0.875 17.265625 C2.095 16.935625 5.065 16.605625 8.125 16.265625 C7.795 16.925625 7.465 17.585625 7.125 18.265625 C4.07224259 18.55915937 1.16970835 18.68558477 -1.875 18.265625 C-4.54646608 15.92809218 -5.5521812 14.10495389 -6.8125 10.828125 C-6.89830865 7.30997034 -5.66478585 5.24860142 -3.875 2.265625 C-1.875 0.265625 -1.875 0.265625 0 0 Z " fill="#D7DD85" transform="translate(340.875,345.734375)"/>
<path d="M0 0 C3.21666704 -0.21931821 5.43362303 -0.26828383 8.375 1.125 C10 3 10 3 10.5 6 C10 9 10 9 8.4375 10.9375 C4.94869263 12.45826219 2.63095606 11.94135898 -1 11 C-3.1519437 7.77208445 -3.20086443 6.71599191 -3 3 C-2.34 3 -1.68 3 -1 3 C-0.67 2.01 -0.34 1.02 0 0 Z M-1 3 C-0.71269945 5.33944736 -0.38063221 7.6739143 0 10 C1.78141747 10.86358623 1.78141747 10.86358623 4 11 C6.43695474 9.47981752 6.43695474 9.47981752 8 7 C7.85974801 4.29294488 7.85974801 4.29294488 7 2 C2.67679914 1.49633499 2.67679914 1.49633499 -1 3 Z " fill="#B5CE88" transform="translate(310,57)"/>
<path d="M0 0 C1.546875 0.7115625 1.546875 0.7115625 3.125 1.4375 C11.9240101 5.15341662 22.04080323 5.18549218 31 2 C27.81322367 5.89494885 23.72291591 6.8161653 18.8515625 7.3359375 C11.75488108 7.42185374 6.95193583 7.00611066 1 3 C0.67 2.01 0.34 1.02 0 0 Z " fill="#D69879" transform="translate(418,235)"/>
<path d="M0 0 C1.1034375 -0.00515625 2.206875 -0.0103125 3.34375 -0.015625 C6.46392334 0.24696385 8.68304814 0.92561218 11.5 2.25 C11.5 3.24 11.5 4.23 11.5 5.25 C10.55125 4.92 9.6025 4.59 8.625 4.25 C2.21322314 2.46247433 -3.95525492 2.17061271 -10 5.1875 C-11.17559765 5.85961423 -12.3440942 6.54455749 -13.5 7.25 C-14.49 7.745 -14.49 7.745 -15.5 8.25 C-15.17 6.93 -14.84 5.61 -14.5 4.25 C-13.51 4.25 -12.52 4.25 -11.5 4.25 C-11.5 3.59 -11.5 2.93 -11.5 2.25 C-7.53869906 0.38759732 -4.36265773 -0.02038625 0 0 Z " fill="#FEF2DE" transform="translate(419.5,256.75)"/>
<path d="M0 0 C1.87890625 2.0234375 1.87890625 2.0234375 3 4 C2.32710938 3.84015625 1.65421875 3.6803125 0.9609375 3.515625 C-7.33007827 2.07180695 -16.59783792 1.65525269 -24 6 C-24.969375 6.556875 -25.93875 7.11375 -26.9375 7.6875 C-27.618125 8.120625 -28.29875 8.55375 -29 9 C-29 8.01 -29 7.02 -29 6 C-28.01 6 -27.02 6 -26 6 C-26 5.34 -26 4.68 -26 4 C-25.01 4 -24.02 4 -23 4 C-23 3.34 -23 2.68 -23 2 C-15.58193111 0.12455143 -7.61737553 -1.26065963 0 0 Z " fill="#FBE5D2" transform="translate(443,185)"/>
<path d="M0 0 C0.66 0 1.32 0 2 0 C1.855625 0.53625 1.71125 1.0725 1.5625 1.625 C1.376875 2.40875 1.19125 3.1925 1 4 C0.7525 4.969375 0.505 5.93875 0.25 6.9375 C-0.05478813 10.67115458 0.74338849 12.07476285 3 15 C6.17746491 16.58873246 9.54012202 16.41026221 13 16 C15.4595774 14.66169042 15.4595774 14.66169042 17 13 C16.06896676 15.32758311 15.34617872 16.74357132 13.3125 18.25 C9.96071103 19.33706669 7.50937084 19.42354476 4 19 C-0.36977099 16.61648855 -0.36977099 16.61648855 -2 14 C-2.93503108 8.87801558 -2.60126914 4.54173201 0 0 Z " fill="#FDF9D6" transform="translate(365,173)"/>
<path d="M0 0 C0.99 0 1.98 0 3 0 C3.54133971 6.63141145 2.89897323 10.54143747 -1 16 C-4.50662485 18.3377499 -5.87629745 18.3298962 -10 18 C-12.875 17 -12.875 17 -15 16 C-14.67 14.68 -14.34 13.36 -14 12 C-13.34 12.66 -12.68 13.32 -12 14 C-9.89582032 14.35639561 -9.89582032 14.35639561 -7.5625 14.3125 C-6.78003906 14.32925781 -5.99757813 14.34601563 -5.19140625 14.36328125 C-2.45870492 13.91026659 -1.62029797 13.22226625 0 11 C0.60781869 9.06399334 0.60781869 9.06399334 0.75 7 C0.82734375 6.319375 0.9046875 5.63875 0.984375 4.9375 C1.10636877 2.77932647 1.10636877 2.77932647 0 0 Z " fill="#FDFDDA" transform="translate(351,349)"/>
<path d="M0 0 C0.33 0 0.66 0 1 0 C1.03738281 0.72445312 1.07476562 1.44890625 1.11328125 2.1953125 C1.62729848 10.01764635 1.62729848 10.01764635 5 17 C7.05093145 18.40466953 7.05093145 18.40466953 9 19 C9 19.66 9 20.32 9 21 C12.3 21.33 15.6 21.66 19 22 C19 22.33 19 22.66 19 23 C17.56260487 23.02712066 16.12506137 23.04645067 14.6875 23.0625 C13.48673828 23.07990234 13.48673828 23.07990234 12.26171875 23.09765625 C10 23 10 23 7 22 C7 21.34 7 20.68 7 20 C6.13375 19.690625 6.13375 19.690625 5.25 19.375 C1.98528791 17.37989816 0.73585378 15.40971278 -1 12 C-1.5298986 7.74629346 -1.35609289 4.06827866 0 0 Z " fill="#EBD585" transform="translate(369,93)"/>
<path d="M0 0 C0.66 0 1.32 0 2 0 C1.95359375 0.72445312 1.9071875 1.44890625 1.859375 2.1953125 C1.62953713 8.35168413 1.68870095 12.19598106 6 17 C6.99 17.66 7.98 18.32 9 19 C9 19.66 9 20.32 9 21 C12.96 21.33 16.92 21.66 21 22 C21 22.33 21 22.66 21 23 C10.86272439 24.06441394 10.86272439 24.06441394 6.45703125 21.546875 C3.3357202 18.84060167 1.32110245 16.96330735 0 13 C-0.06937062 10.77181559 -0.08457084 8.54165476 -0.0625 6.3125 C-0.05347656 5.13300781 -0.04445313 3.95351562 -0.03515625 2.73828125 C-0.02355469 1.83464844 -0.01195312 0.93101563 0 0 Z " fill="#FEFAD7" transform="translate(367,94)"/>
<path d="M0 0 C1.28583984 -0.02513672 1.28583984 -0.02513672 2.59765625 -0.05078125 C5.35854781 0.37787136 6.21528897 1.17244105 7.9375 3.3125 C6.761875 3.10625 5.58625 2.9 4.375 2.6875 C-1.2922589 2.00662791 -5.3448542 3.00559559 -9.9375 6.5 C-12.45687803 9.83447092 -12.81987506 12.18787605 -13.0625 16.3125 C-13.7225 15.6525 -14.3825 14.9925 -15.0625 14.3125 C-14.93933483 8.89323266 -12.7769279 6.11330994 -9.0625 2.3125 C-5.99765673 0.40505535 -3.58935618 0.01624143 0 0 Z " fill="#72679A" transform="translate(160.0625,387.6875)"/>
<path d="M0 0 C4.73467393 0.06828857 7.36625586 0.67734871 11 3.75 C14.95827966 7.84788703 16.3116176 10.62933685 16.5 16.375 C16.45875 17.426875 16.4175 18.47875 16.375 19.5625 C16.045 18.2425 15.715 16.9225 15.375 15.5625 C14.715 15.5625 14.055 15.5625 13.375 15.5625 C13.148125 14.510625 12.92125 13.45875 12.6875 12.375 C11.57320499 8.39422145 9.49237397 6.28021064 6.375 3.5625 C6.045 3.2325 5.715 2.9025 5.375 2.5625 C3.18860547 2.48991054 0.99999611 2.47876217 -1.1875 2.5 C-2.38503906 2.50902344 -3.58257812 2.51804687 -4.81640625 2.52734375 C-6.20666016 2.54474609 -6.20666016 2.54474609 -7.625 2.5625 C-5.01053623 -0.05196377 -3.64937153 0.14320319 0 0 Z " fill="#E8C381" transform="translate(383.625,313.4375)"/>
<path d="M0 0 C0.99 0 1.98 0 3 0 C7.71253465 7.21606869 8.07759667 14.57338821 7 23 C5.47265625 25.453125 5.47265625 25.453125 4 27 C3 24 3 24 4 21 C4.67685716 12.8888101 4.36002214 6.94878528 0 0 Z " fill="#F5FBDC" transform="translate(318,91)"/>
<path d="M0 0 C0.99 0.33 1.98 0.66 3 1 C2.72285156 1.4846875 2.44570313 1.969375 2.16015625 2.46875 C-2.33473124 10.78669126 -2.53408113 16.95270208 0 26 C-0.66 26 -1.32 26 -2 26 C-3.64624411 21.66881013 -4.27185655 18.06562507 -4.25 13.4375 C-4.25515625 12.34308594 -4.2603125 11.24867188 -4.265625 10.12109375 C-4.00162841 7.01913386 -3.31501748 4.80223963 -2 2 C-1.34 2 -0.68 2 0 2 C0 1.34 0 0.68 0 0 Z " fill="#FDF2D6" transform="translate(399,267)"/>
<path d="M0 0 C0.66 0.33 1.32 0.66 2 1 C1.49339844 1.79664063 1.49339844 1.79664063 0.9765625 2.609375 C0.30753906 3.66898438 0.30753906 3.66898438 -0.375 4.75 C-0.81585938 5.44609375 -1.25671875 6.1421875 -1.7109375 6.859375 C-2.13632812 7.56578125 -2.56171875 8.2721875 -3 9 C-3.37898438 9.61875 -3.75796875 10.2375 -4.1484375 10.875 C-6.9597297 17.89033466 -5.19662324 26.99826343 -3 34 C-3.66 34 -4.32 34 -5 34 C-7.19872915 29.58509147 -7.30067641 25.4561514 -7.25 20.625 C-7.25773437 19.89539063 -7.26546875 19.16578125 -7.2734375 18.4140625 C-7.25113245 12.16864844 -6.67793814 6.87769268 -2.375 2.0625 C-1.59125 1.381875 -0.8075 0.70125 0 0 Z " fill="#FEF2D9" transform="translate(412,194)"/>
<path d="M0 0 C1.32 0.33 2.64 0.66 4 1 C3.401875 1.680625 2.80375 2.36125 2.1875 3.0625 C-2.02588033 8.72046787 -3.81182629 13.95973595 -3 21 C-2.45557576 23.72212122 -1.7638904 26.32638358 -1 29 C-1.66 29 -2.32 29 -3 29 C-5.6471356 21.88582307 -6.40241025 13.46556948 -4.109375 6.1640625 C-3 4 -3 4 -1 3 C-0.67 2.01 -0.34 1.02 0 0 Z " fill="#FFF8DF" transform="translate(400,131)"/>
<path d="M0 0 C3.5 1.625 3.5 1.625 4.5 3.625 C3.695625 3.295 2.89125 2.965 2.0625 2.625 C-5.57371503 0.48150104 -11.32052351 1.53039806 -18.5 4.625 C-19.49 4.955 -20.48 5.285 -21.5 5.625 C-21.5 4.635 -21.5 3.645 -21.5 2.625 C-14.05779172 -1.70501209 -8.2610306 -2.87660887 0 0 Z " fill="#FEF2DE" transform="translate(426.5,124.375)"/>
<path d="M0 0 C0.99 0.33 1.98 0.66 3 1 C2.29875 1.45375 1.5975 1.9075 0.875 2.375 C-5.37932869 8.08547403 -8.87305401 15.31565586 -9.5625 23.6875 C-9.64628906 24.68136719 -9.73007812 25.67523438 -9.81640625 26.69921875 C-9.87699219 27.45847656 -9.93757813 28.21773438 -10 29 C-10.33 29 -10.66 29 -11 29 C-11.46509638 18.6645249 -10.40130866 11.25975311 -4 3 C-3.34 3 -2.68 3 -2 3 C-2 2.34 -2 1.68 -2 1 C-1.34 0.67 -0.68 0.34 0 0 Z " fill="#E8F9E1" transform="translate(293,388)"/>
<path d="M0 0 C0.99 0.33 1.98 0.66 3 1 C2.505 1.804375 2.01 2.60875 1.5 3.4375 C-0.58639572 8.39268984 -0.96990256 12.95651265 0.6796875 18.1328125 C1.38283579 19.78688514 2.18261807 21.39929372 3 23 C2.34 23 1.68 23 1 23 C0.67 22.34 0.34 21.68 0 21 C-0.99 20.67 -1.98 20.34 -3 20 C-4.6875 16.4375 -4.6875 16.4375 -6 13 C-5.34 13 -4.68 13 -4 13 C-3.67 13.66 -3.34 14.32 -3 15 C-3.05220703 14.00419922 -3.05220703 14.00419922 -3.10546875 12.98828125 C-3.37434095 4.21792619 -3.37434095 4.21792619 0 0 Z " fill="#FEFBD0" transform="translate(369,318)"/>
<path d="M0 0 C2.375 1.25 2.375 1.25 3.25 3.375 C3.29125 3.99375 3.3325 4.6125 3.375 5.25 C2.67246094 4.76273437 1.96992188 4.27546875 1.24609375 3.7734375 C-3.52151652 1.24368511 -8.35417425 1.69517624 -13.625 2.25 C-15.9900062 3.01064895 -17.54338247 3.86225498 -19.625 5.25 C-19.625 4.26 -19.625 3.27 -19.625 2.25 C-18.635 2.25 -17.645 2.25 -16.625 2.25 C-16.625 1.59 -16.625 0.93 -16.625 0.25 C-11.83701546 -2.14399227 -5.07605108 -1.05021746 0 0 Z " fill="#FEFCE0" transform="translate(391.625,312.75)"/>
<path d="M0 0 C0.99 0.33 1.98 0.66 3 1 C-3.50346749 7.27991079 -8.85901537 10.15234237 -18 10.1875 C-19.66715964 10.13993159 -21.33421233 10.08267696 -23 10 C-23 9.67 -23 9.34 -23 9 C-22.24976563 8.92523438 -21.49953125 8.85046875 -20.7265625 8.7734375 C-12.97350638 7.77745296 -5.70458757 5.70458757 0 0 Z " fill="#C2D47C" transform="translate(329,430)"/>
<path d="M0 0 C0.66 0.33 1.32 0.66 2 1 C1.38125 1.70125 0.7625 2.4025 0.125 3.125 C-3.39988929 8.27483825 -3.37147198 14.96282294 -4 21 C-6.70454841 16.94317738 -6.42076588 13.75789116 -6 9 C-5 5.4375 -5 5.4375 -4 3 C-3.34 3 -2.68 3 -2 3 C-2 2.34 -2 1.68 -2 1 C-1.34 0.67 -0.68 0.34 0 0 Z " fill="#F0E683" transform="translate(360,384)"/>
<path d="M0 0 C3.78834395 1.26278132 4.22011278 2.52112952 6 6 C8.74365906 14.40010686 7.76600863 24.15414869 4 32 C3.34 32 2.68 32 2 32 C2.2165625 31.46632813 2.433125 30.93265625 2.65625 30.3828125 C6.13691257 21.0688173 5.87803599 13.14362614 2 4 C1.3463453 2.66023966 0.68325044 1.32491172 0 0 Z " fill="#E0F7E8" transform="translate(255,74)"/>
<path d="M0 0 C8.47472775 0.70622731 14.87854468 4.16326353 21 10 C22.9375 12.6875 22.9375 12.6875 24 15 C23.67 15.66 23.34 16.32 23 17 C18 11.25 18 11.25 18 9 C17.360625 8.773125 16.72125 8.54625 16.0625 8.3125 C12.62062679 6.83741148 9.43611069 5.06766778 6.18359375 3.21875 C4.14881829 2.08306137 2.09238102 1.02483968 0 0 Z " fill="#BED282" transform="translate(312,384)"/>
<path d="M0 0 C0 0.66 0 1.32 0 2 C-1.21236328 2.05607422 -1.21236328 2.05607422 -2.44921875 2.11328125 C-3.51785156 2.17902344 -4.58648437 2.24476562 -5.6875 2.3125 C-6.74324219 2.37050781 -7.79898437 2.42851563 -8.88671875 2.48828125 C-12.27637599 3.04542692 -14.19371525 4.06380694 -17 6 C-17.99 6.66 -18.98 7.32 -20 8 C-18.50521886 4.19510255 -16.30557786 2.33809165 -13 0 C-8.52745503 -1.49084832 -4.47254497 -1.49084832 0 0 Z " fill="#E9CD80" transform="translate(390,85)"/>
<path d="M0 0 C2.475 0.99 2.475 0.99 5 2 C5 2.99 5 3.98 5 5 C5.99 5.33 6.98 5.66 8 6 C8 6.66 8 7.32 8 8 C9.98 7.34 11.96 6.68 14 6 C14.33 4.35 14.66 2.7 15 1 C15.66 1.33 16.32 1.66 17 2 C16.69381595 5.67420866 16.24228216 6.78135513 13.4375 9.3125 C12.633125 9.869375 11.82875 10.42625 11 11 C5.62677926 8.69719111 2.79296513 5.02733723 0 0 Z " fill="#F3ED5F" transform="translate(349,333)"/>
<path d="M0 0 C0.66 0.66 1.32 1.32 2 2 C-2.76307437 2.95261487 -7.1666528 3.08333357 -12 3 C-12.268125 3.61875 -12.53625 4.2375 -12.8125 4.875 C-14 7 -14 7 -17 9 C-16.16358104 5.23611466 -15.59889372 3.43821492 -12.4375 1.125 C-8.25697089 -0.24317316 -4.36781473 -0.67264347 0 0 Z " fill="#E1A272" transform="translate(430,346)"/>
<path d="M0 0 C1.22589844 0.15275391 1.22589844 0.15275391 2.4765625 0.30859375 C3.41628906 0.43427734 3.41628906 0.43427734 4.375 0.5625 C4.375 0.8925 4.375 1.2225 4.375 1.5625 C3.1375 1.624375 1.9 1.68625 0.625 1.75 C-2.91636227 2.16295037 -3.43285592 2.35518665 -6 5.125 C-6.53625 5.929375 -7.0725 6.73375 -7.625 7.5625 C-8.285 7.5625 -8.945 7.5625 -9.625 7.5625 C-9.09430939 11.38347239 -8.12798434 13.62421403 -5.625 16.5625 C-8.09300047 15.41076645 -9.67283565 14.51466435 -11.625 12.5625 C-11.25 8.9375 -11.25 8.9375 -10.625 5.5625 C-9.635 5.5625 -8.645 5.5625 -7.625 5.5625 C-7.439375 4.3559375 -7.439375 4.3559375 -7.25 3.125 C-7.04375 2.279375 -6.8375 1.43375 -6.625 0.5625 C-4.10446405 -0.69776798 -2.7707902 -0.35624445 0 0 Z " fill="#FDFBAD" transform="translate(351.625,315.4375)"/>
<path d="M0 0 C0.59167969 0.40992188 1.18335938 0.81984375 1.79296875 1.2421875 C2.58316406 1.78101563 3.37335938 2.31984375 4.1875 2.875 C4.96480469 3.40867188 5.74210937 3.94234375 6.54296875 4.4921875 C11.30207954 7.4127229 15.2442042 8.28752753 20.8125 8.625 C22.55466797 8.73714844 22.55466797 8.73714844 24.33203125 8.8515625 C25.21246094 8.90054688 26.09289062 8.94953125 27 9 C27 9.33 27 9.66 27 10 C9.97653772 10.86170507 9.97653772 10.86170507 5.625 7.5625 C4.75875 6.716875 3.8925 5.87125 3 5 C2.01 4.67 1.02 4.34 0 4 C0 2.68 0 1.36 0 0 Z " fill="#FDEDDA" transform="translate(413,233)"/>
<path d="M0 0 C0.99 0.66 1.98 1.32 3 2 C1.948125 2.37125 0.89625 2.7425 -0.1875 3.125 C-5.29419253 5.31210872 -7.92382337 9.16651388 -10.6875 13.875 C-11.120625 14.57625 -11.55375 15.2775 -12 16 C-12.66 16 -13.32 16 -14 16 C-12.51465764 10.32869279 -9.99573998 6.01373393 -5.1171875 2.734375 C-3.44053704 1.77047069 -1.72299228 0.87838822 0 0 Z " fill="#7D70A0" transform="translate(159,84)"/>
<path d="M0 0 C-0.99 0.495 -0.99 0.495 -2 1 C-2.99 0.67 -3.98 0.34 -5 0 C-10.27128523 -0.39783285 -13.5165777 0.17349464 -18 3 C-20.81356892 5.56197123 -20.81356892 5.56197123 -23 8 C-23.3125 5.75 -23.3125 5.75 -23 3 C-17.21399158 -2.95132294 -7.22483651 -4.14486086 0 0 Z " fill="#FDF8D6" transform="translate(392,85)"/>
<path d="M0 0 C-1 3 -1 3 -3.21875 4.171875 C-6.12399016 5.03691842 -8.47536285 5.26699234 -11.5 5.25 C-12.4178125 5.25515625 -13.335625 5.2603125 -14.28125 5.265625 C-17.1778282 4.98262598 -19.36375653 4.20350245 -22 3 C-18.22121674 1.11060837 -13.53303273 2.05185196 -9.3828125 2.16015625 C-5.80779758 1.99090035 -3.34576089 0 0 0 Z " fill="#FDF7D3" transform="translate(390,417)"/>
<path d="M0 0 C0.66 0.33 1.32 0.66 2 1 C1.33613281 1.56847656 0.67226562 2.13695312 -0.01171875 2.72265625 C-5.08304037 7.1572864 -9.37168746 11.31564368 -13 17 C-13.33 16.34 -13.66 15.68 -14 15 C-11.25227445 8.64588467 -6.20654803 3.10327402 0 0 Z " fill="#584B74" transform="translate(98,264)"/>
<path d="M0 0 C0.33 0 0.66 0 1 0 C1.50947768 8.4912946 1.33863057 14.97308809 -4.37890625 21.59765625 C-5.53677734 22.78191757 -6.76210867 23.89965215 -8 25 C-8 21.2503633 -6.60417057 20.37576956 -4.2421875 17.66015625 C-0.56966298 12.75190807 -0.5099639 5.91826526 0 0 Z " fill="#69A778" transform="translate(265,391)"/>
<path d="M0 0 C0 0.66 0 1.32 0 2 C-0.92232422 2.16435547 -0.92232422 2.16435547 -1.86328125 2.33203125 C-2.67152344 2.49058594 -3.47976562 2.64914062 -4.3125 2.8125 C-5.51326172 3.03873047 -5.51326172 3.03873047 -6.73828125 3.26953125 C-9.25430815 4.08213407 -10.22594766 5.10108767 -12 7 C-12.66 7 -13.32 7 -14 7 C-14.33 8.32 -14.66 9.64 -15 11 C-15.66 11 -16.32 11 -17 11 C-15.56179187 5.96627156 -13.09754485 4.01044111 -9 1 C-5.8035914 -0.06546953 -3.34252724 -0.07427838 0 0 Z " fill="#5A7AA3" transform="translate(198,346)"/>
<path d="M0 0 C3.875 0.875 3.875 0.875 5 2 C5.58651026 9.27272727 5.58651026 9.27272727 3.4375 11.9375 C0.3180705 13.29725132 -2.62664725 13.67563916 -6 14 C-6.66 12.68 -7.32 11.36 -8 10 C-4.97265625 10.48828125 -4.97265625 10.48828125 -1.9453125 10.9765625 C-0.98238281 10.98816406 -0.98238281 10.98816406 0 11 C2.37994368 9.05667668 2.37994368 9.05667668 2.25 5.5 C2.37994368 1.94332332 2.37994368 1.94332332 0 0 Z " fill="#FCF5D5" transform="translate(386,206)"/>
<path d="M0 0 C0.99 0.33 1.98 0.66 3 1 C1.95199219 2.01320313 1.95199219 2.01320313 0.8828125 3.046875 C-0.02726562 3.93890625 -0.93734375 4.8309375 -1.875 5.75 C-2.77992188 6.63171875 -3.68484375 7.5134375 -4.6171875 8.421875 C-6.64542996 10.61636684 -7.88880413 12.2667136 -9 15 C-9.33 14.01 -9.66 13.02 -10 12 C-8.671875 9.58984375 -8.671875 9.58984375 -6.75 6.9375 C-6.12609375 6.05964844 -5.5021875 5.18179687 -4.859375 4.27734375 C-3 2 -3 2 0 0 Z " fill="#86BA70" transform="translate(295,389)"/>
<path d="M0 0 C-3.96 1.98 -7.92 3.96 -12 6 C-11.67 4.68 -11.34 3.36 -11 2 C-6.63269119 -0.38965954 -4.91414388 -1.22853597 0 0 Z M-14 6 C-13.34 6.33 -12.68 6.66 -12 7 C-12.99 7.66 -13.98 8.32 -15 9 C-14.67 8.01 -14.34 7.02 -14 6 Z M-17 9 C-16.34 9.33 -15.68 9.66 -15 10 C-15.99 10.66 -16.98 11.32 -18 12 C-17.67 11.01 -17.34 10.02 -17 9 Z " fill="#E5A26F" transform="translate(430,188)"/>
<path d="M0 0 C5.23235533 0.06875631 7.82603558 0.98130104 11.75 4.375 C11.42 5.035 11.09 5.695 10.75 6.375 C10.20472656 6.17003906 9.65945313 5.96507812 9.09765625 5.75390625 C3.59567235 3.78824021 -1.4264819 2.83718398 -7.25 2.375 C-4.68599223 -0.18900777 -3.56217985 0.04866366 0 0 Z " fill="#E7E487" transform="translate(348.25,125.625)"/>
<path d="M0 0 C0.66 0.66 1.32 1.32 2 2 C-1.32311909 7.29237484 -4.88086189 12.75631603 -11 15 C-11.99 15 -12.98 15 -14 15 C-14 14.34 -14 13.68 -14 13 C-12.68 13 -11.36 13 -10 13 C-10 12.34 -10 11.68 -10 11 C-8.68 10.67 -7.36 10.34 -6 10 C-6 9.34 -6 8.68 -6 8 C-4 6 -4 6 -2 4 C-0.76487921 1.86690808 -0.76487921 1.86690808 0 0 Z " fill="#647BA8" transform="translate(186,113)"/>
<path d="M0 0 C0.7734375 -0.00515625 1.546875 -0.0103125 2.34375 -0.015625 C4.5 0.25 4.5 0.25 7.5 2.25 C7.17 3.24 6.84 4.23 6.5 5.25 C5.51 4.59 4.52 3.93 3.5 3.25 C-2.23212522 2.56186979 -2.23212522 2.56186979 -7 5.25 C-7.495 5.91 -7.99 6.57 -8.5 7.25 C-8.1875 4.875 -8.1875 4.875 -7.5 2.25 C-4.377998 0.16866533 -3.56733011 -0.0237822 0 0 Z " fill="#FBFCD8" transform="translate(343.5,343.75)"/>
<path d="M0 0 C0.721875 0.103125 1.44375 0.20625 2.1875 0.3125 C2.5175 0.9725 2.8475 1.6325 3.1875 2.3125 C1.4859375 3.0240625 1.4859375 3.0240625 -0.25 3.75 C-3.56990166 4.94872083 -3.56990166 4.94872083 -4.8125 6.3125 C-4.85342937 8.64547433 -4.85491723 10.97955225 -4.8125 13.3125 C-5.8025 12.6525 -6.7925 11.9925 -7.8125 11.3125 C-8.3125 8.5 -8.3125 8.5 -7.8125 5.3125 C-5.37508357 2.10903841 -4.07219987 0.45246665 0 0 Z " fill="#FEFADD" transform="translate(382.8125,202.6875)"/>
<path d="M0 0 C2 2 2 2 2.4375 4.3125 C1.81702912 8.12396398 -0.12900717 9.53914901 -3 12 C-5.95664519 13.4783226 -8.74229737 13.06032783 -12 13 C-9.23776722 10.23776722 -6.79293383 10.42143709 -3 10 C-3 9.34 -3 8.68 -3 8 C-2.34 8 -1.68 8 -1 8 C-0.67 5.36 -0.34 2.72 0 0 Z " fill="#6A8FA5" transform="translate(208,145)"/>
<path d="M0 0 C0 3 0 3 -1.43359375 4.71875 C-6.03348553 8.80754269 -10.69875946 12.31643347 -17 13 C-17.99 12.34 -18.98 11.68 -20 11 C-18.0509375 10.7215625 -18.0509375 10.7215625 -16.0625 10.4375 C-9.40557403 8.99446383 -4.71829429 4.71829429 0 0 Z " fill="#836093" transform="translate(132,304)"/>
<path d="M0 0 C-1.2065625 0.4640625 -1.2065625 0.4640625 -2.4375 0.9375 C-7.51631532 3.4221003 -11.1743391 7.94479945 -15 12 C-15 8.3012364 -14.15647938 7.64226148 -11.75 4.9375 C-11.14671875 4.24527344 -10.5434375 3.55304688 -9.921875 2.83984375 C-6.63372966 -0.30795392 -4.39399535 -1.56928405 0 0 Z " fill="#705485" transform="translate(120,335)"/>
<path d="M0 0 C0.33 0 0.66 0 1 0 C1.73027231 7.99242475 1.2609086 12.99270267 -3.6875 19.453125 C-4.120625 19.96359375 -4.55375 20.4740625 -5 21 C-6 18 -6 18 -5.0390625 16.0546875 C-4.57242187 15.33539063 -4.10578125 14.61609375 -3.625 13.875 C-0.82384691 9.14950906 -0.25960562 5.45171796 0 0 Z " fill="#DE8C67" transform="translate(440,278)"/>
<path d="M0 0 C1.2494272 2.49885439 0.84649652 3.53196126 0.375 6.25 C-0.36553042 12.08050533 1.82341499 15.23512248 5 20 C2.23186874 19.71364159 1.1687083 19.18075889 -0.75 17.125 C-2.59436044 12.51409891 -2.58525717 7.91007966 -2 3 C-1.34 2.01 -0.68 1.02 0 0 Z " fill="#F9FBD7" transform="translate(333,134)"/>
<path d="M0 0 C0.66 0 1.32 0 2 0 C2 5.94 2 11.88 2 18 C-0.56663082 15.43336918 -0.96727711 13.71027915 -1.1328125 10.1171875 C-1.12894531 8.51230469 -1.12894531 8.51230469 -1.125 6.875 C-1.12757813 5.79992187 -1.13015625 4.72484375 -1.1328125 3.6171875 C-1 1 -1 1 0 0 Z " fill="#8BBC80" transform="translate(284,405)"/>
<path d="M0 0 C0.33 0.99 0.66 1.98 1 3 C-0.2684375 3.804375 -0.2684375 3.804375 -1.5625 4.625 C-5.30774716 7.10991339 -8.64327872 10.02066159 -12 13 C-10.32939586 6.6888288 -5.18555656 3.4570377 0 0 Z " fill="#64909A" transform="translate(221,65)"/>
<path d="M0 0 C2.49361571 1.20381448 4.68143083 2.45428722 7 4 C12.0007253 5.66690843 16.78667075 6.4512285 22 7 C22 7.33 22 7.66 22 8 C14.77723002 8.47797743 9.01391552 8.36303675 3 4 C1 1.75 1 1.75 0 0 Z " fill="#765688" transform="translate(108,370)"/>
<path d="M0 0 C1.216875 0.495 2.43375 0.99 3.6875 1.5 C9.7338745 3.55731273 15.68735913 3.26343324 22 3 C19.16546061 5.83453939 17.20098712 5.29999688 13.25 5.3125 C12.03828125 5.32925781 10.8265625 5.34601563 9.578125 5.36328125 C5.74432384 4.97404161 3.3081494 3.92298868 0 2 C0 1.34 0 0.68 0 0 Z " fill="#FCECD3" transform="translate(406,167)"/>
<path d="M0 0 C1.5 1.125 1.5 1.125 3 3 C3.59885798 7.5912445 2.80858753 10.32723169 0 14 C-0.66 14 -1.32 14 -2 14 C-1.67 12.989375 -1.34 11.97875 -1 10.9375 C0.07001321 7.24520089 0.15704155 3.84751793 0 0 Z " fill="#E9E68C" transform="translate(350,66)"/>
<path d="M0 0 C0.66 0 1.32 0 2 0 C2.33 3.3 2.66 6.6 3 10 C1.02 8.68 -0.96 7.36 -3 6 C-2 4 -1 2 0 0 Z " fill="#FDFBB6" transform="translate(356,317)"/>
<path d="M0 0 C0.99 0.33 1.98 0.66 3 1 C1.92250558 1.82022749 0.83770492 2.63086169 -0.25 3.4375 C-0.85328125 3.88996094 -1.4565625 4.34242188 -2.078125 4.80859375 C-5.55541759 6.96423245 -8.72462472 7.1216967 -12.75 7.0625 C-13.54921875 7.05347656 -14.3484375 7.04445312 -15.171875 7.03515625 C-15.77515625 7.02355469 -16.3784375 7.01195312 -17 7 C-17 6.67 -17 6.34 -17 6 C-13.7 5.67 -10.4 5.34 -7 5 C-7 4.34 -7 3.68 -7 3 C-3.535 2.505 -3.535 2.505 0 2 C0 1.34 0 0.68 0 0 Z " fill="#DDA178" transform="translate(432,164)"/>
<path d="M0 0 C0.33 0.66 0.66 1.32 1 2 C0.09373216 3.2989839 -0.82549537 4.58893167 -1.75 5.875 C-2.51570313 6.95394531 -2.51570313 6.95394531 -3.296875 8.0546875 C-5.07503547 10.08570565 -6.52701607 10.97855012 -9 12 C-8.67 10.68 -8.34 9.36 -8 8 C-7.34 8 -6.68 8 -6 8 C-6 7.34 -6 6.68 -6 6 C-5.34 6 -4.68 6 -4 6 C-3.71125 5.38125 -3.4225 4.7625 -3.125 4.125 C-2 2 -2 2 0 0 Z " fill="#D97E65" transform="translate(458,225)"/>
<path d="M0 0 C0.33 0 0.66 0 1 0 C1 2.64 1 5.28 1 8 C1.66 8 2.32 8 3 8 C4.72264494 11.29549466 6.29445932 14.33118845 7 18 C0.21274584 11.56996974 0.21274584 11.56996974 -0.1953125 6.640625 C-0.17210937 5.85171875 -0.14890625 5.0628125 -0.125 4.25 C-0.10695313 3.45078125 -0.08890625 2.6515625 -0.0703125 1.828125 C-0.04710937 1.22484375 -0.02390625 0.6215625 0 0 Z " fill="#EBD785" transform="translate(368,325)"/>
<path d="M0 0 C0.99 0.33 1.98 0.66 3 1 C2.34 1 1.68 1 1 1 C1 1.66 1 2.32 1 3 C0.34 3 -0.32 3 -1 3 C-1.12469099 8.57830016 -1.12469099 8.57830016 0 14 C-0.99 14 -1.98 14 -3 14 C-3.08082094 12.04233719 -3.13910778 10.08373272 -3.1875 8.125 C-3.22230469 7.03445312 -3.25710938 5.94390625 -3.29296875 4.8203125 C-3.19628906 3.88960938 -3.09960938 2.95890625 -3 2 C-2.01 1.34 -1.02 0.68 0 0 Z " fill="#FAFCDC" transform="translate(336,64)"/>
<path d="M0 0 C1.299375 0.680625 1.299375 0.680625 2.625 1.375 C8.40462378 3.899846 14.79407361 4.26837206 21 5 C21 5.33 21 5.66 21 6 C6.15158717 6.26888474 6.15158717 6.26888474 1.5625 3.5625 C1.046875 3.046875 0.53125 2.53125 0 2 C0 1.34 0 0.68 0 0 Z " fill="#E29768" transform="translate(418,235)"/>
<path d="M0 0 C0.99 0.33 1.98 0.66 3 1 C1.73034469 2.43854058 0.45922782 3.87579127 -0.8125 5.3125 C-1.52019531 6.11300781 -2.22789063 6.91351563 -2.95703125 7.73828125 C-4.59337122 9.54983162 -6.25272168 11.29681703 -8 13 C-6.63589551 7.40717158 -3.84616474 4.08806189 0 0 Z " fill="#6F5585" transform="translate(111,203)"/>
<path d="M0 0 C2.9375 2 2.9375 2 5 4 C4.67 5.32 4.34 6.64 4 8 C3.71125 7.175 3.4225 6.35 3.125 5.5 C1.27751478 2.76323725 1.27751478 2.76323725 -1.42578125 2.66796875 C-3.9661018 2.68593424 -6.46898139 2.78631175 -9 3 C-9 2.34 -9 1.68 -9 1 C-5.89951072 -0.55024464 -3.42105782 -0.28992015 0 0 Z " fill="#FEFBDD" transform="translate(378,170)"/>
<path d="M0 0 C2.34545328 2.34545328 2.95508888 3.95985838 3.09765625 7.26171875 C3.08605469 8.06222656 3.07445312 8.86273438 3.0625 9.6875 C3.05347656 10.49574219 3.04445312 11.30398437 3.03515625 12.13671875 C3.02355469 12.75160156 3.01195312 13.36648437 3 14 C2.01 14.33 1.02 14.66 0 15 C0 10.05 0 5.1 0 0 Z " fill="#6C8AB2" transform="translate(187,97)"/>
<path d="M0 0 C0 0.33 0 0.66 0 1 C-2.97 1 -5.94 1 -9 1 C-9.33 1.99 -9.66 2.98 -10 4 C-14.455 4.495 -14.455 4.495 -19 5 C-12.83432006 -0.02388736 -7.71255046 -0.26956487 0 0 Z " fill="#9BC383" transform="translate(306,83)"/>
<path d="M0 0 C2.97 0.33 5.94 0.66 9 1 C9 1.66 9 2.32 9 3 C9.99 3 10.98 3 12 3 C12.33 4.32 12.66 5.64 13 7 C12.43796875 6.71382813 11.8759375 6.42765625 11.296875 6.1328125 C8.97129077 4.98584069 6.62229799 3.92160206 4.25 2.875 C3.45078125 2.52179688 2.6515625 2.16859375 1.828125 1.8046875 C1.22484375 1.53914063 0.6215625 1.27359375 0 1 C0 0.67 0 0.34 0 0 Z " fill="#F5FAD8" transform="translate(317,384)"/>
<path d="M0 0 C0.99 0.66 1.98 1.32 3 2 C2.4 7.4 2.4 7.4 0.75 9.875 C-1.58213386 11.37422891 -3.28371825 11.22023906 -6 11 C-5.67 10.34 -5.34 9.68 -5 9 C-2.4375 8.375 -2.4375 8.375 0 8 C0 5.36 0 2.72 0 0 Z " fill="#B5CE81" transform="translate(317,360)"/>
<path d="M0 0 C2.14729141 0.28073073 4.29283193 0.57488499 6.4375 0.875 C7.63246094 1.03742188 8.82742188 1.19984375 10.05859375 1.3671875 C11.51458984 1.68042969 11.51458984 1.68042969 13 2 C13.33 2.66 13.66 3.32 14 4 C12.41705218 4.05437607 10.83355744 4.09296271 9.25 4.125 C8.36828125 4.14820313 7.4865625 4.17140625 6.578125 4.1953125 C3.8864142 3.99139502 2.30095026 3.36551721 0 2 C0 1.34 0 0.68 0 0 Z " fill="#E8C876" transform="translate(375,341)"/>
<path d="M0 0 C0.99 0.33 1.98 0.66 3 1 C0.36 3.97 -2.28 6.94 -5 10 C-5.33 8.68 -5.66 7.36 -6 6 C-3.625 3.3125 -3.625 3.3125 -1 1 C-0.67 0.67 -0.34 0.34 0 0 Z " fill="#73598A" transform="translate(111,127)"/>
<path d="M0 0 C2.475 0.495 2.475 0.495 5 1 C5 1.66 5 2.32 5 3 C6.32 3.33 7.64 3.66 9 4 C9.33 6.31 9.66 8.62 10 11 C6 6.25 6 6.25 6 4 C5.195625 3.71125 4.39125 3.4225 3.5625 3.125 C1 2 1 2 0 0 Z " fill="#FDFCD4" transform="translate(354,126)"/>
<path d="M0 0 C0.33 0 0.66 0 1 0 C1.63019694 10.15317287 1.63019694 10.15317287 -1 13.6875 C-1.66 14.120625 -2.32 14.55375 -3 15 C-3 11.68455701 -2.32773835 9.01998611 -1.5 5.8125 C-1.2215625 4.72582031 -0.943125 3.63914062 -0.65625 2.51953125 C-0.33140625 1.27236328 -0.33140625 1.27236328 0 0 Z " fill="#FCEECF" transform="translate(400,396)"/>
<path d="M0 0 C0.66 0.33 1.32 0.66 2 1 C-3.40303965 5.67289916 -8.04769059 5.44534366 -15 5 C-15 4.67 -15 4.34 -15 4 C-14.33613281 3.87882813 -13.67226563 3.75765625 -12.98828125 3.6328125 C-8.41758237 2.7653806 -4.31793827 1.75416242 0 0 Z " fill="#E9E48A" transform="translate(358,152)"/>
<path d="M0 0 C1.32 0.33 2.64 0.66 4 1 C3.401875 1.680625 2.80375 2.36125 2.1875 3.0625 C-0.23587643 6.31674834 -1.5252401 9.23936225 -3 13 C-4.16909807 9.49270578 -3.85056945 7.55692677 -3 4 C-2.34 3.67 -1.68 3.34 -1 3 C-0.67 2.01 -0.34 1.02 0 0 Z " fill="#FCF0D5" transform="translate(400,131)"/>
<path d="M0 0 C0.66 0 1.32 0 2 0 C0.62968895 5.65253308 -3.67689413 8.5113541 -8 12 C-8.66 11.34 -9.32 10.68 -10 10 C-9.44570312 9.61328125 -8.89140625 9.2265625 -8.3203125 8.828125 C-7.59585938 8.30734375 -6.87140625 7.7865625 -6.125 7.25 C-5.40570313 6.73953125 -4.68640625 6.2290625 -3.9453125 5.703125 C-1.91429435 3.92496453 -1.02144988 2.47298393 0 0 Z " fill="#6CA484" transform="translate(255,104)"/>
<path d="M0 0 C0.33 0 0.66 0 1 0 C1.18175781 1.19496094 1.18175781 1.19496094 1.3671875 2.4140625 C2.61883475 10.34501378 2.61883475 10.34501378 5 18 C4.01 17.67 3.02 17.34 2 17 C-0.28020848 11.35948428 -0.21802745 6.01998014 0 0 Z " fill="#FEFDD8" transform="translate(353,393)"/>
<path d="M0 0 C4.98012761 1.50912958 8.24259942 4.55661849 12 8 C11.67 8.99 11.34 9.98 11 11 C9.948125 9.576875 9.948125 9.576875 8.875 8.125 C6.30396782 5.00145374 3.98260427 3.92618704 0 3 C0 2.01 0 1.02 0 0 Z " fill="#AFCC81" transform="translate(307,84)"/>
<path d="M0 0 C0.94696598 2.55680815 1.04509772 3.83600828 0.3125 6.5 C-1.11219358 9.21370205 -2.73212969 10.95891672 -5 13 C-5.66 12.67 -6.32 12.34 -7 12 C-6.57847656 11.38511719 -6.15695312 10.77023437 -5.72265625 10.13671875 C-4.90087891 8.92435547 -4.90087891 8.92435547 -4.0625 7.6875 C-3.51722656 6.88699219 -2.97195313 6.08648437 -2.41015625 5.26171875 C-0.86162674 2.9741857 -0.86162674 2.9741857 0 0 Z " fill="#DAF3E1" transform="translate(265,403)"/>
<path d="M0 0 C2.9719385 1.12451727 5.33440687 2.22293791 8 4 C10.27912938 4.45394552 10.27912938 4.45394552 12.6875 4.625 C13.89986328 4.73714844 13.89986328 4.73714844 15.13671875 4.8515625 C15.75160156 4.90054687 16.36648437 4.94953125 17 5 C17 5.33 17 5.66 17 6 C6.24614413 6.86107387 6.24614413 6.86107387 2.3125 3.5625 C0 1 0 1 0 0 Z " fill="#756A9B" transform="translate(148,413)"/>
<path d="M0 0 C2.12472576 -0.05386629 4.24983652 -0.09273071 6.375 -0.125 C7.55835938 -0.14820313 8.74171875 -0.17140625 9.9609375 -0.1953125 C13 0 13 0 15 2 C14.67 2.99 14.34 3.98 14 5 C13.17242187 4.27876953 13.17242187 4.27876953 12.328125 3.54296875 C9.63856507 1.76045839 7.94178582 1.52248591 4.75 1.3125 C3.85796875 1.24675781 2.9659375 1.18101562 2.046875 1.11328125 C1.03367187 1.05720703 1.03367187 1.05720703 0 1 C0 0.67 0 0.34 0 0 Z " fill="#FBF2D0" transform="translate(380,313)"/>
<path d="M0 0 C0 0.33 0 0.66 0 1 C-0.66386719 1.10957031 -1.32773437 1.21914062 -2.01171875 1.33203125 C-6.90879478 2.21136023 -10.90161428 2.99451714 -15 6 C-15 4.68 -15 3.36 -15 2 C-9.87080814 -0.10428384 -5.4389165 -0.21755666 0 0 Z " fill="#FAFBD1" transform="translate(351,125)"/>
<path d="M0 0 C0.99 0.33 1.98 0.66 3 1 C1.8758824 2.29243468 0.75067408 3.58392075 -0.375 4.875 C-1.00148438 5.59429687 -1.62796875 6.31359375 -2.2734375 7.0546875 C-3.47426834 8.4076598 -4.7208345 9.7208345 -6 11 C-5.55530671 5.96014269 -3.28656638 3.62365012 0 0 Z " fill="#7FB774" transform="translate(286,88)"/>
<path d="M0 0 C0.99 0 1.98 0 3 0 C3 0.66 3 1.32 3 2 C-0.77222089 3.75163456 -3.666639 4.22490027 -7.8125 4.125 C-9.27623047 4.09792969 -9.27623047 4.09792969 -10.76953125 4.0703125 C-11.50558594 4.04710937 -12.24164063 4.02390625 -13 4 C-13 3.67 -13 3.34 -13 3 C-12.14535156 2.86722656 -11.29070312 2.73445313 -10.41015625 2.59765625 C-9.30542969 2.42105469 -8.20070313 2.24445313 -7.0625 2.0625 C-5.96035156 1.88847656 -4.85820312 1.71445312 -3.72265625 1.53515625 C-1.09573071 1.28154864 -1.09573071 1.28154864 0 0 Z " fill="#B3CC83" transform="translate(319,436)"/>
<path d="M0 0 C0 2.79784711 -0.37195775 4.9790678 -1 7.6875 C-1.185625 8.49574219 -1.37125 9.30398437 -1.5625 10.13671875 C-1.706875 10.75160156 -1.85125 11.36648437 -2 12 C-2.66 11.34 -3.32 10.68 -4 10 C-3.66302652 3.82215289 -3.66302652 3.82215289 -1.4375 1.0625 C-0.7259375 0.5365625 -0.7259375 0.5365625 0 0 Z " fill="#676081" transform="translate(86,173)"/>
<path d="M0 0 C0.70125 0.01417969 1.4025 0.02835937 2.125 0.04296875 C3.176875 0.05263672 3.176875 0.05263672 4.25 0.0625 C6.125 0.23046875 6.125 0.23046875 8.125 1.23046875 C8.125 1.89046875 8.125 2.55046875 8.125 3.23046875 C4.165 2.90046875 0.205 2.57046875 -3.875 2.23046875 C-1.875 0.23046875 -1.875 0.23046875 0 0 Z " fill="#FEFFE8" transform="translate(345.875,122.76953125)"/>
<path d="M0 0 C0.99 0.33 1.98 0.66 3 1 C2.13375 1.309375 2.13375 1.309375 1.25 1.625 C-1.80459709 3.49169822 -3.09416428 6.0141907 -5 9 C-5.99 9.495 -5.99 9.495 -7 10 C-5.6062718 5.56541027 -3.39417765 3.12621626 0 0 Z " fill="#629390" transform="translate(230,379)"/>
<path d="M0 0 C4.40114397 0.50298788 6.71195019 2.08772731 10 5 C9.67 5.99 9.34 6.98 9 8 C9 7.34 9 6.68 9 6 C8.443125 5.731875 7.88625 5.46375 7.3125 5.1875 C4.79739624 3.89596023 2.3827482 2.52231135 0 1 C0 0.67 0 0.34 0 0 Z " fill="#E7BF72" transform="translate(384,377)"/>
<path d="M0 0 C4 4 4 4 4.171875 6.140625 C3.78125 8.09375 3.390625 10.046875 3 12 C2.67 12 2.34 12 2 12 C1.34 8.04 0.68 4.08 0 0 Z " fill="#E8E589" transform="translate(349,348)"/>
<path d="M0 0 C0.33 1.32 0.66 2.64 1 4 C-1.4375 6.75 -1.4375 6.75 -4 9 C-4.99 8.67 -5.98 8.34 -7 8 C-4.69 5.36 -2.38 2.72 0 0 Z " fill="#E2F6EC" transform="translate(256,106)"/>
<path d="M0 0 C2.64 0 5.28 0 8 0 C7.34 1.32 6.68 2.64 6 4 C5.67 3.34 5.34 2.68 5 2 C3.02 2.33 1.04 2.66 -1 3 C-0.67 2.01 -0.34 1.02 0 0 Z " fill="#F0E959" transform="translate(348,317)"/>
<path d="M0 0 C0.680625 0.309375 1.36125 0.61875 2.0625 0.9375 C5.36965912 2.13370649 8.51545878 2.59005397 12 3 C12 3.33 12 3.66 12 4 C10.56589632 4.24954005 9.12739928 4.47392642 7.6875 4.6875 C6.88699219 4.81511719 6.08648437 4.94273437 5.26171875 5.07421875 C3 5 3 5 1.20703125 3.64453125 C0 2 0 2 0 0 Z " fill="#F8F8CD" transform="translate(338,154)"/>
<path d="M0 0 C0.99 0 1.98 0 3 0 C5.09350689 3.4019487 5.17942163 6.05272412 5 10 C2.82145293 6.7321794 1.50239966 3.61941735 0 0 Z " fill="#FAFCD8" transform="translate(334,396)"/>
<path d="M0 0 C0.33 1.32 0.66 2.64 1 4 C-0.9375 6.25 -0.9375 6.25 -3 8 C-3.99 7.67 -4.98 7.34 -6 7 C-4.02 4.69 -2.04 2.38 0 0 Z " fill="#DF8B63" transform="translate(438,367)"/>
<path d="M0 0 C3.96 0 7.92 0 12 0 C12.66 1.32 13.32 2.64 14 4 C13.360625 3.690625 12.72125 3.38125 12.0625 3.0625 C8.07950896 1.68064597 4.18349151 1.3463457 0 1 C0 0.67 0 0.34 0 0 Z " fill="#FDEEDC" transform="translate(421,345)"/>
<path d="M0 0 C3 3 3 3 3.1875 6.6875 C3.125625 7.780625 3.06375 8.87375 3 10 C2.01 10.495 2.01 10.495 1 11 C0.67 7.37 0.34 3.74 0 0 Z " fill="#F2E931" transform="translate(361,329)"/>
<path d="M0 0 C3.94714588 3.94714588 3.94714588 3.94714588 4.09765625 6.9453125 C4.06510417 8.96354167 4.03255208 10.98177083 4 13 C3.67 13 3.34 13 3 13 C2.01 8.71 1.02 4.42 0 0 Z " fill="#ECDF87" transform="translate(360,132)"/>
<path d="M0 0 C3.39417765 3.12621626 5.6062718 5.56541027 7 10 C2.78577758 7.11658466 1.23924145 4.95696581 0 0 Z " fill="#CBD782" transform="translate(329,391)"/>
<path d="M0 0 C0.33 1.32 0.66 2.64 1 4 C-2.63423209 6.32590854 -5.77088331 6.16265833 -10 6 C-10 5.67 -10 5.34 -10 5 C-6.97265625 4.36523438 -6.97265625 4.36523438 -3.9453125 3.73046875 C-1.62953451 3.07691162 -1.62953451 3.07691162 0 0 Z " fill="#E2E177" transform="translate(350,357)"/>
<path d="M0 0 C4.455 2.97 4.455 2.97 9 6 C6 7 6 7 2.8125 5.5625 C1.884375 5.046875 0.95625 4.53125 0 4 C0 2.68 0 1.36 0 0 Z " fill="#FBE7CE" transform="translate(413,233)"/>
<path d="M0 0 C1.22589844 0.15275391 1.22589844 0.15275391 2.4765625 0.30859375 C3.41628906 0.43427734 3.41628906 0.43427734 4.375 0.5625 C4.375 0.8925 4.375 1.2225 4.375 1.5625 C1.39648438 1.90429688 1.39648438 1.90429688 -1.58203125 2.24609375 C-3.81896393 2.53420735 -3.81896393 2.53420735 -6.625 3.5625 C-6.625 2.5725 -6.625 1.5825 -6.625 0.5625 C-4.10446405 -0.69776798 -2.7707902 -0.35624445 0 0 Z " fill="#FEFECB" transform="translate(351.625,315.4375)"/>
<path d="M0 0 C0.33 1.32 0.66 2.64 1 4 C0.34 4 -0.32 4 -1 4 C-1.33 5.32 -1.66 6.64 -2 8 C-3.32 8.33 -4.64 8.66 -6 9 C-4.02 6.03 -2.04 3.06 0 0 Z " fill="#FCE4D9" transform="translate(458,227)"/>
<path d="M0 0 C3.77545388 1.09068668 6.47043472 1.9083091 9 5 C5.85262818 4.30058404 2.97411124 3.23921302 0 2 C0 1.34 0 0.68 0 0 Z " fill="#6374A2" transform="translate(172,84)"/>
</svg>
